G04 #@! TF.GenerationSoftware,KiCad,Pcbnew,(5.1.2)-2*
G04 #@! TF.CreationDate,2019-08-20T00:13:47-05:00*
G04 #@! TF.ProjectId,helix,68656c69-782e-46b6-9963-61645f706362,rev?*
G04 #@! TF.SameCoordinates,Original*
G04 #@! TF.FileFunction,Soldermask,Bot*
G04 #@! TF.FilePolarity,Negative*
%FSLAX46Y46*%
G04 Gerber Fmt 4.6, Leading zero omitted, Abs format (unit mm)*
G04 Created by KiCad (PCBNEW (5.1.2)-2) date 2019-08-20 00:13:47*
%MOMM*%
%LPD*%
G04 APERTURE LIST*
%ADD10C,0.150000*%
%ADD11C,0.100000*%
%ADD12C,2.000000*%
%ADD13C,1.400000*%
%ADD14C,2.400000*%
%ADD15C,1.797000*%
%ADD16C,1.924000*%
%ADD17C,5.100400*%
%ADD18R,1.797000X1.797000*%
%ADD19R,2.000000X1.400000*%
%ADD20C,2.600000*%
%ADD21R,1.543000X1.035000*%
%ADD22R,1.350000X1.700000*%
%ADD23R,1.924000X1.924000*%
%ADD24C,2.100000*%
%ADD25C,2.800000*%
%ADD26C,1.950000*%
%ADD27C,1.950000*%
%ADD28C,1.650000*%
%ADD29C,1.650000*%
%ADD30C,2.300000*%
%ADD31C,4.400000*%
G04 APERTURE END LIST*
D10*
X180500000Y-138000000D02*
X213500000Y-138000000D01*
X179500000Y-135000000D02*
X179500000Y-137000000D01*
X175500000Y-137000000D02*
X175500000Y-135000000D01*
X123500000Y-138000000D02*
X174500000Y-138000000D01*
X117500000Y-138000000D02*
X84500000Y-138000000D01*
X122500000Y-135000000D02*
X122500000Y-137000000D01*
X118500000Y-135000000D02*
X118500000Y-137000000D01*
X83000000Y-84500000D02*
X83000000Y-117500000D01*
X86000000Y-83500000D02*
X84000000Y-83500000D01*
X84000000Y-79500000D02*
X86000000Y-79500000D01*
X83000000Y-45500000D02*
X83000000Y-78500000D01*
X179500000Y-137000000D02*
G75*
G03X180500000Y-138000000I1000000J0D01*
G01*
X174500000Y-138000000D02*
G75*
G03X175500000Y-137000000I0J1000000D01*
G01*
X122500000Y-137000000D02*
G75*
G03X123500000Y-138000000I1000000J0D01*
G01*
X117500000Y-138000000D02*
G75*
G03X118500000Y-137000000I0J1000000D01*
G01*
X84000000Y-83500000D02*
G75*
G03X83000000Y-84500000I0J-1000000D01*
G01*
X83000000Y-78500000D02*
G75*
G03X84000000Y-79500000I1000000J0D01*
G01*
X180500000Y-44000000D02*
X213500000Y-44000000D01*
X179500000Y-45000000D02*
X179500000Y-47000000D01*
X180500000Y-44000000D02*
G75*
G03X179500000Y-45000000I0J-1000000D01*
G01*
X175500000Y-45000000D02*
X175500000Y-47000000D01*
X175500000Y-45000000D02*
G75*
G03X174500000Y-44000000I-1000000J0D01*
G01*
X123500000Y-44000000D02*
X174500000Y-44000000D01*
X122500000Y-47000000D02*
X122500000Y-45000000D01*
X123500000Y-44000000D02*
G75*
G03X122500000Y-45000000I0J-1000000D01*
G01*
X117500000Y-44000000D02*
X84500000Y-44000000D01*
X118500000Y-45000000D02*
X118500000Y-47000000D01*
X118500000Y-45000000D02*
G75*
G03X117500000Y-44000000I-1000000J0D01*
G01*
X175500000Y-135000000D02*
X179500000Y-135000000D01*
X118500000Y-135000000D02*
X122500000Y-135000000D01*
X175500000Y-47000000D02*
X179500000Y-47000000D01*
X118500000Y-47000000D02*
X122500000Y-47000000D01*
X86000000Y-79500000D02*
X86000000Y-83500000D01*
X204250000Y-126250000D02*
X204250000Y-121750000D01*
X207750000Y-126250000D02*
X204250000Y-126250000D01*
X207750000Y-121750000D02*
X207750000Y-126250000D01*
X204250000Y-121750000D02*
X207750000Y-121750000D01*
X185250000Y-126250000D02*
X185250000Y-121750000D01*
X188750000Y-126250000D02*
X185250000Y-126250000D01*
X188750000Y-121750000D02*
X188750000Y-126250000D01*
X185250000Y-121750000D02*
X188750000Y-121750000D01*
X166250000Y-126250000D02*
X166250000Y-121750000D01*
X169750000Y-126250000D02*
X166250000Y-126250000D01*
X169750000Y-121750000D02*
X169750000Y-126250000D01*
X166250000Y-121750000D02*
X169750000Y-121750000D01*
X147250000Y-126250000D02*
X147250000Y-121750000D01*
X150750000Y-126250000D02*
X147250000Y-126250000D01*
X150750000Y-121750000D02*
X150750000Y-126250000D01*
X147250000Y-121750000D02*
X150750000Y-121750000D01*
X128250000Y-126250000D02*
X128250000Y-121750000D01*
X131750000Y-126250000D02*
X128250000Y-126250000D01*
X131750000Y-121750000D02*
X131750000Y-126250000D01*
X128250000Y-121750000D02*
X131750000Y-121750000D01*
X109250000Y-126250000D02*
X109250000Y-121750000D01*
X112750000Y-126250000D02*
X109250000Y-126250000D01*
X112750000Y-121750000D02*
X112750000Y-126250000D01*
X109250000Y-121750000D02*
X112750000Y-121750000D01*
X90250000Y-126250000D02*
X90250000Y-121750000D01*
X93750000Y-126250000D02*
X90250000Y-126250000D01*
X93750000Y-121750000D02*
X93750000Y-126250000D01*
X90250000Y-121750000D02*
X93750000Y-121750000D01*
X90250000Y-107250000D02*
X90250000Y-102750000D01*
X93750000Y-107250000D02*
X90250000Y-107250000D01*
X93750000Y-102750000D02*
X93750000Y-107250000D01*
X90250000Y-102750000D02*
X93750000Y-102750000D01*
X109250000Y-107250000D02*
X109250000Y-102750000D01*
X112750000Y-107250000D02*
X109250000Y-107250000D01*
X112750000Y-102750000D02*
X112750000Y-107250000D01*
X109250000Y-102750000D02*
X112750000Y-102750000D01*
X128250000Y-107250000D02*
X128250000Y-102750000D01*
X131750000Y-107250000D02*
X128250000Y-107250000D01*
X131750000Y-102750000D02*
X131750000Y-107250000D01*
X128250000Y-102750000D02*
X131750000Y-102750000D01*
X147250000Y-107250000D02*
X147250000Y-102750000D01*
X150750000Y-107250000D02*
X147250000Y-107250000D01*
X150750000Y-102750000D02*
X150750000Y-107250000D01*
X147250000Y-102750000D02*
X150750000Y-102750000D01*
X166250000Y-107250000D02*
X166250000Y-102750000D01*
X169750000Y-107250000D02*
X166250000Y-107250000D01*
X169750000Y-102750000D02*
X169750000Y-107250000D01*
X166250000Y-102750000D02*
X169750000Y-102750000D01*
X185250000Y-107250000D02*
X185250000Y-102750000D01*
X188750000Y-107250000D02*
X185250000Y-107250000D01*
X188750000Y-102750000D02*
X188750000Y-107250000D01*
X185250000Y-102750000D02*
X188750000Y-102750000D01*
X204250000Y-107250000D02*
X204250000Y-102750000D01*
X207750000Y-107250000D02*
X204250000Y-107250000D01*
X207750000Y-102750000D02*
X207750000Y-107250000D01*
X204250000Y-102750000D02*
X207750000Y-102750000D01*
X185250000Y-88250000D02*
X185250000Y-83750000D01*
X188750000Y-88250000D02*
X185250000Y-88250000D01*
X188750000Y-83750000D02*
X188750000Y-88250000D01*
X185250000Y-83750000D02*
X188750000Y-83750000D01*
X166250000Y-88250000D02*
X166250000Y-83750000D01*
X169750000Y-88250000D02*
X166250000Y-88250000D01*
X169750000Y-83750000D02*
X169750000Y-88250000D01*
X166250000Y-83750000D02*
X169750000Y-83750000D01*
X147250000Y-88250000D02*
X147250000Y-83750000D01*
X150750000Y-88250000D02*
X147250000Y-88250000D01*
X150750000Y-83750000D02*
X150750000Y-88250000D01*
X147250000Y-83750000D02*
X150750000Y-83750000D01*
X128250000Y-88250000D02*
X128250000Y-83750000D01*
X131750000Y-88250000D02*
X128250000Y-88250000D01*
X131750000Y-83750000D02*
X131750000Y-88250000D01*
X128250000Y-83750000D02*
X131750000Y-83750000D01*
X109250000Y-88250000D02*
X109250000Y-83750000D01*
X112750000Y-88250000D02*
X109250000Y-88250000D01*
X112750000Y-83750000D02*
X112750000Y-88250000D01*
X109250000Y-83750000D02*
X112750000Y-83750000D01*
X90250000Y-88250000D02*
X90250000Y-83750000D01*
X93750000Y-88250000D02*
X90250000Y-88250000D01*
X93750000Y-83750000D02*
X93750000Y-88250000D01*
X90250000Y-83750000D02*
X93750000Y-83750000D01*
X90250000Y-69250000D02*
X90250000Y-64750000D01*
X93750000Y-69250000D02*
X90250000Y-69250000D01*
X93750000Y-64750000D02*
X93750000Y-69250000D01*
X90250000Y-64750000D02*
X93750000Y-64750000D01*
X109250000Y-69250000D02*
X109250000Y-64750000D01*
X112750000Y-69250000D02*
X109250000Y-69250000D01*
X112750000Y-64750000D02*
X112750000Y-69250000D01*
X109250000Y-64750000D02*
X112750000Y-64750000D01*
X128250000Y-69250000D02*
X128250000Y-64750000D01*
X131750000Y-69250000D02*
X128250000Y-69250000D01*
X131750000Y-64750000D02*
X131750000Y-69250000D01*
X128250000Y-64750000D02*
X131750000Y-64750000D01*
X147250000Y-69250000D02*
X147250000Y-64750000D01*
X150750000Y-69250000D02*
X147250000Y-69250000D01*
X150750000Y-64750000D02*
X150750000Y-69250000D01*
X147250000Y-64750000D02*
X150750000Y-64750000D01*
X166250000Y-69250000D02*
X166250000Y-64750000D01*
X169750000Y-69250000D02*
X166250000Y-69250000D01*
X169750000Y-64750000D02*
X169750000Y-69250000D01*
X166250000Y-64750000D02*
X169750000Y-64750000D01*
X185250000Y-69250000D02*
X185250000Y-64750000D01*
X188750000Y-69250000D02*
X185250000Y-69250000D01*
X188750000Y-64750000D02*
X188750000Y-69250000D01*
X185250000Y-64750000D02*
X188750000Y-64750000D01*
X185250000Y-50250000D02*
X185250000Y-45750000D01*
X188750000Y-50250000D02*
X185250000Y-50250000D01*
X188750000Y-45750000D02*
X188750000Y-50250000D01*
X185250000Y-45750000D02*
X188750000Y-45750000D01*
X166250000Y-50250000D02*
X166250000Y-45750000D01*
X169750000Y-50250000D02*
X166250000Y-50250000D01*
X169750000Y-45750000D02*
X169750000Y-50250000D01*
X166250000Y-45750000D02*
X169750000Y-45750000D01*
X147250000Y-50250000D02*
X147250000Y-45750000D01*
X150750000Y-50250000D02*
X147250000Y-50250000D01*
X150750000Y-45750000D02*
X150750000Y-50250000D01*
X147250000Y-45750000D02*
X150750000Y-45750000D01*
X128250000Y-50250000D02*
X128250000Y-45750000D01*
X131750000Y-50250000D02*
X128250000Y-50250000D01*
X131750000Y-45750000D02*
X131750000Y-50250000D01*
X128250000Y-45750000D02*
X131750000Y-45750000D01*
X109250000Y-50250000D02*
X109250000Y-45750000D01*
X112750000Y-50250000D02*
X109250000Y-50250000D01*
X112750000Y-45750000D02*
X112750000Y-50250000D01*
X109250000Y-45750000D02*
X112750000Y-45750000D01*
X90250000Y-50250000D02*
X90250000Y-45750000D01*
X93750000Y-50250000D02*
X90250000Y-50250000D01*
X93750000Y-45750000D02*
X93750000Y-50250000D01*
X90250000Y-45750000D02*
X93750000Y-45750000D01*
X204500000Y-120000000D02*
X188500000Y-120000000D01*
X188500000Y-119000000D02*
X204500000Y-119000000D01*
X185500000Y-120000000D02*
X169500000Y-120000000D01*
X169500000Y-119000000D02*
X185500000Y-119000000D01*
X166500000Y-120000000D02*
X150500000Y-120000000D01*
X150500000Y-119000000D02*
X166500000Y-119000000D01*
X147500000Y-120000000D02*
X131500000Y-120000000D01*
X131500000Y-119000000D02*
X147500000Y-119000000D01*
X128500000Y-120000000D02*
X112500000Y-120000000D01*
X112500000Y-119000000D02*
X128500000Y-119000000D01*
X93500000Y-120000000D02*
X109500000Y-120000000D01*
X93500000Y-119000000D02*
X109500000Y-119000000D01*
X90500000Y-120000000D02*
X84500000Y-120000000D01*
X84500000Y-119000000D02*
X90500000Y-119000000D01*
X215000000Y-117500000D02*
X215000000Y-45500000D01*
X207500000Y-119000000D02*
X213500000Y-119000000D01*
X213500000Y-120000000D02*
X207500000Y-120000000D01*
X215000000Y-136500000D02*
X215000000Y-121500000D01*
X83000000Y-121500000D02*
X83000000Y-136500000D01*
X215000000Y-45500000D02*
G75*
G03X213500000Y-44000000I-1500000J0D01*
G01*
X84500000Y-44000000D02*
G75*
G03X83000000Y-45500000I0J-1500000D01*
G01*
X207000000Y-119500000D02*
G75*
G03X207500000Y-120000000I500000J0D01*
G01*
X207500000Y-119000000D02*
G75*
G03X207000000Y-119500000I0J-500000D01*
G01*
X204500000Y-120000000D02*
G75*
G03X205000000Y-119500000I0J500000D01*
G01*
X205000000Y-119500000D02*
G75*
G03X204500000Y-119000000I-500000J0D01*
G01*
X188000000Y-119500000D02*
G75*
G03X188500000Y-120000000I500000J0D01*
G01*
X188500000Y-119000000D02*
G75*
G03X188000000Y-119500000I0J-500000D01*
G01*
X185500000Y-120000000D02*
G75*
G03X186000000Y-119500000I0J500000D01*
G01*
X186000000Y-119500000D02*
G75*
G03X185500000Y-119000000I-500000J0D01*
G01*
X169000000Y-119500000D02*
G75*
G03X169500000Y-120000000I500000J0D01*
G01*
X169500000Y-119000000D02*
G75*
G03X169000000Y-119500000I0J-500000D01*
G01*
X166500000Y-120000000D02*
G75*
G03X167000000Y-119500000I0J500000D01*
G01*
X167000000Y-119500000D02*
G75*
G03X166500000Y-119000000I-500000J0D01*
G01*
X150000000Y-119500000D02*
G75*
G03X150500000Y-120000000I500000J0D01*
G01*
X150500000Y-119000000D02*
G75*
G03X150000000Y-119500000I0J-500000D01*
G01*
X147500000Y-120000000D02*
G75*
G03X148000000Y-119500000I0J500000D01*
G01*
X148000000Y-119500000D02*
G75*
G03X147500000Y-119000000I-500000J0D01*
G01*
X131000000Y-119500000D02*
G75*
G03X131500000Y-120000000I500000J0D01*
G01*
X131500000Y-119000000D02*
G75*
G03X131000000Y-119500000I0J-500000D01*
G01*
X128500000Y-120000000D02*
G75*
G03X129000000Y-119500000I0J500000D01*
G01*
X129000000Y-119500000D02*
G75*
G03X128500000Y-119000000I-500000J0D01*
G01*
X112000000Y-119500000D02*
G75*
G03X112500000Y-120000000I500000J0D01*
G01*
X112500000Y-119000000D02*
G75*
G03X112000000Y-119500000I0J-500000D01*
G01*
X109500000Y-120000000D02*
G75*
G03X110000000Y-119500000I0J500000D01*
G01*
X110000000Y-119500000D02*
G75*
G03X109500000Y-119000000I-500000J0D01*
G01*
X93000000Y-119500000D02*
G75*
G03X93500000Y-120000000I500000J0D01*
G01*
X93500000Y-119000000D02*
G75*
G03X93000000Y-119500000I0J-500000D01*
G01*
X90500000Y-120000000D02*
G75*
G03X91000000Y-119500000I0J500000D01*
G01*
X91000000Y-119500000D02*
G75*
G03X90500000Y-119000000I-500000J0D01*
G01*
X83000000Y-117500000D02*
G75*
G03X84500000Y-119000000I1500000J0D01*
G01*
X84500000Y-120000000D02*
G75*
G03X83000000Y-121500000I0J-1500000D01*
G01*
X83000000Y-136500000D02*
G75*
G03X84500000Y-138000000I1500000J0D01*
G01*
X213500000Y-138000000D02*
G75*
G03X215000000Y-136500000I0J1500000D01*
G01*
X215000000Y-121500000D02*
G75*
G03X213500000Y-120000000I-1500000J0D01*
G01*
X213500000Y-119000000D02*
G75*
G03X215000000Y-117500000I0J1500000D01*
G01*
D11*
G36*
X209599009Y-86902408D02*
G01*
X209647545Y-86909607D01*
X209695142Y-86921530D01*
X209741342Y-86938060D01*
X209785698Y-86959039D01*
X209827785Y-86984265D01*
X209867197Y-87013495D01*
X209903553Y-87046447D01*
X209936505Y-87082803D01*
X209965735Y-87122215D01*
X209990961Y-87164302D01*
X210011940Y-87208658D01*
X210028470Y-87254858D01*
X210040393Y-87302455D01*
X210047592Y-87350991D01*
X210050000Y-87400000D01*
X210050000Y-88400000D01*
X210047592Y-88449009D01*
X210040393Y-88497545D01*
X210028470Y-88545142D01*
X210011940Y-88591342D01*
X209990961Y-88635698D01*
X209965735Y-88677785D01*
X209936505Y-88717197D01*
X209903553Y-88753553D01*
X209867197Y-88786505D01*
X209827785Y-88815735D01*
X209785698Y-88840961D01*
X209741342Y-88861940D01*
X209695142Y-88878470D01*
X209647545Y-88890393D01*
X209599009Y-88897592D01*
X209550000Y-88900000D01*
X208050000Y-88900000D01*
X208000991Y-88897592D01*
X207952455Y-88890393D01*
X207904858Y-88878470D01*
X207858658Y-88861940D01*
X207814302Y-88840961D01*
X207772215Y-88815735D01*
X207732803Y-88786505D01*
X207696447Y-88753553D01*
X207663495Y-88717197D01*
X207634265Y-88677785D01*
X207609039Y-88635698D01*
X207588060Y-88591342D01*
X207571530Y-88545142D01*
X207559607Y-88497545D01*
X207552408Y-88449009D01*
X207550000Y-88400000D01*
X207550000Y-87400000D01*
X207552408Y-87350991D01*
X207559607Y-87302455D01*
X207571530Y-87254858D01*
X207588060Y-87208658D01*
X207609039Y-87164302D01*
X207634265Y-87122215D01*
X207663495Y-87082803D01*
X207696447Y-87046447D01*
X207732803Y-87013495D01*
X207772215Y-86984265D01*
X207814302Y-86959039D01*
X207858658Y-86938060D01*
X207904858Y-86921530D01*
X207952455Y-86909607D01*
X208000991Y-86902408D01*
X208050000Y-86900000D01*
X209550000Y-86900000D01*
X209599009Y-86902408D01*
X209599009Y-86902408D01*
G37*
D12*
X208800000Y-87900000D03*
D11*
G36*
X204299009Y-82652408D02*
G01*
X204347545Y-82659607D01*
X204395142Y-82671530D01*
X204441342Y-82688060D01*
X204485698Y-82709039D01*
X204527785Y-82734265D01*
X204567197Y-82763495D01*
X204603553Y-82796447D01*
X204636505Y-82832803D01*
X204665735Y-82872215D01*
X204690961Y-82914302D01*
X204711940Y-82958658D01*
X204728470Y-83004858D01*
X204740393Y-83052455D01*
X204747592Y-83100991D01*
X204750000Y-83150000D01*
X204750000Y-84150000D01*
X204747592Y-84199009D01*
X204740393Y-84247545D01*
X204728470Y-84295142D01*
X204711940Y-84341342D01*
X204690961Y-84385698D01*
X204665735Y-84427785D01*
X204636505Y-84467197D01*
X204603553Y-84503553D01*
X204567197Y-84536505D01*
X204527785Y-84565735D01*
X204485698Y-84590961D01*
X204441342Y-84611940D01*
X204395142Y-84628470D01*
X204347545Y-84640393D01*
X204299009Y-84647592D01*
X204250000Y-84650000D01*
X202750000Y-84650000D01*
X202700991Y-84647592D01*
X202652455Y-84640393D01*
X202604858Y-84628470D01*
X202558658Y-84611940D01*
X202514302Y-84590961D01*
X202472215Y-84565735D01*
X202432803Y-84536505D01*
X202396447Y-84503553D01*
X202363495Y-84467197D01*
X202334265Y-84427785D01*
X202309039Y-84385698D01*
X202288060Y-84341342D01*
X202271530Y-84295142D01*
X202259607Y-84247545D01*
X202252408Y-84199009D01*
X202250000Y-84150000D01*
X202250000Y-83150000D01*
X202252408Y-83100991D01*
X202259607Y-83052455D01*
X202271530Y-83004858D01*
X202288060Y-82958658D01*
X202309039Y-82914302D01*
X202334265Y-82872215D01*
X202363495Y-82832803D01*
X202396447Y-82796447D01*
X202432803Y-82763495D01*
X202472215Y-82734265D01*
X202514302Y-82709039D01*
X202558658Y-82688060D01*
X202604858Y-82671530D01*
X202652455Y-82659607D01*
X202700991Y-82652408D01*
X202750000Y-82650000D01*
X204250000Y-82650000D01*
X204299009Y-82652408D01*
X204299009Y-82652408D01*
G37*
D12*
X203500000Y-83650000D03*
D11*
G36*
X204299009Y-88152408D02*
G01*
X204347545Y-88159607D01*
X204395142Y-88171530D01*
X204441342Y-88188060D01*
X204485698Y-88209039D01*
X204527785Y-88234265D01*
X204567197Y-88263495D01*
X204603553Y-88296447D01*
X204636505Y-88332803D01*
X204665735Y-88372215D01*
X204690961Y-88414302D01*
X204711940Y-88458658D01*
X204728470Y-88504858D01*
X204740393Y-88552455D01*
X204747592Y-88600991D01*
X204750000Y-88650000D01*
X204750000Y-89650000D01*
X204747592Y-89699009D01*
X204740393Y-89747545D01*
X204728470Y-89795142D01*
X204711940Y-89841342D01*
X204690961Y-89885698D01*
X204665735Y-89927785D01*
X204636505Y-89967197D01*
X204603553Y-90003553D01*
X204567197Y-90036505D01*
X204527785Y-90065735D01*
X204485698Y-90090961D01*
X204441342Y-90111940D01*
X204395142Y-90128470D01*
X204347545Y-90140393D01*
X204299009Y-90147592D01*
X204250000Y-90150000D01*
X202750000Y-90150000D01*
X202700991Y-90147592D01*
X202652455Y-90140393D01*
X202604858Y-90128470D01*
X202558658Y-90111940D01*
X202514302Y-90090961D01*
X202472215Y-90065735D01*
X202432803Y-90036505D01*
X202396447Y-90003553D01*
X202363495Y-89967197D01*
X202334265Y-89927785D01*
X202309039Y-89885698D01*
X202288060Y-89841342D01*
X202271530Y-89795142D01*
X202259607Y-89747545D01*
X202252408Y-89699009D01*
X202250000Y-89650000D01*
X202250000Y-88650000D01*
X202252408Y-88600991D01*
X202259607Y-88552455D01*
X202271530Y-88504858D01*
X202288060Y-88458658D01*
X202309039Y-88414302D01*
X202334265Y-88372215D01*
X202363495Y-88332803D01*
X202396447Y-88296447D01*
X202432803Y-88263495D01*
X202472215Y-88234265D01*
X202514302Y-88209039D01*
X202558658Y-88188060D01*
X202604858Y-88171530D01*
X202652455Y-88159607D01*
X202700991Y-88152408D01*
X202750000Y-88150000D01*
X204250000Y-88150000D01*
X204299009Y-88152408D01*
X204299009Y-88152408D01*
G37*
D12*
X203500000Y-89150000D03*
D11*
G36*
X209599009Y-83902408D02*
G01*
X209647545Y-83909607D01*
X209695142Y-83921530D01*
X209741342Y-83938060D01*
X209785698Y-83959039D01*
X209827785Y-83984265D01*
X209867197Y-84013495D01*
X209903553Y-84046447D01*
X209936505Y-84082803D01*
X209965735Y-84122215D01*
X209990961Y-84164302D01*
X210011940Y-84208658D01*
X210028470Y-84254858D01*
X210040393Y-84302455D01*
X210047592Y-84350991D01*
X210050000Y-84400000D01*
X210050000Y-85400000D01*
X210047592Y-85449009D01*
X210040393Y-85497545D01*
X210028470Y-85545142D01*
X210011940Y-85591342D01*
X209990961Y-85635698D01*
X209965735Y-85677785D01*
X209936505Y-85717197D01*
X209903553Y-85753553D01*
X209867197Y-85786505D01*
X209827785Y-85815735D01*
X209785698Y-85840961D01*
X209741342Y-85861940D01*
X209695142Y-85878470D01*
X209647545Y-85890393D01*
X209599009Y-85897592D01*
X209550000Y-85900000D01*
X208050000Y-85900000D01*
X208000991Y-85897592D01*
X207952455Y-85890393D01*
X207904858Y-85878470D01*
X207858658Y-85861940D01*
X207814302Y-85840961D01*
X207772215Y-85815735D01*
X207732803Y-85786505D01*
X207696447Y-85753553D01*
X207663495Y-85717197D01*
X207634265Y-85677785D01*
X207609039Y-85635698D01*
X207588060Y-85591342D01*
X207571530Y-85545142D01*
X207559607Y-85497545D01*
X207552408Y-85449009D01*
X207550000Y-85400000D01*
X207550000Y-84400000D01*
X207552408Y-84350991D01*
X207559607Y-84302455D01*
X207571530Y-84254858D01*
X207588060Y-84208658D01*
X207609039Y-84164302D01*
X207634265Y-84122215D01*
X207663495Y-84082803D01*
X207696447Y-84046447D01*
X207732803Y-84013495D01*
X207772215Y-83984265D01*
X207814302Y-83959039D01*
X207858658Y-83938060D01*
X207904858Y-83921530D01*
X207952455Y-83909607D01*
X208000991Y-83902408D01*
X208050000Y-83900000D01*
X209550000Y-83900000D01*
X209599009Y-83902408D01*
X209599009Y-83902408D01*
G37*
D12*
X208800000Y-84900000D03*
D13*
X205400000Y-86400000D03*
X212900000Y-86400000D03*
D14*
X213600000Y-92400000D03*
X207200000Y-92400000D03*
D15*
X197220000Y-85910000D03*
X197220000Y-90990000D03*
X199400000Y-85910000D03*
X199400000Y-90990000D03*
D16*
X198490000Y-47810000D03*
X198490000Y-50350000D03*
X198490000Y-52890000D03*
X198490000Y-55430000D03*
X198490000Y-57970000D03*
X198490000Y-60510000D03*
X198490000Y-63050000D03*
X198490000Y-65590000D03*
X198490000Y-68130000D03*
X198490000Y-70670000D03*
X198490000Y-73210000D03*
X198490000Y-75750000D03*
X213730000Y-75750000D03*
X213730000Y-73210000D03*
X213730000Y-70670000D03*
X213730000Y-68130000D03*
X213730000Y-65590000D03*
X213730000Y-63050000D03*
X213730000Y-60510000D03*
X213730000Y-57970000D03*
X213730000Y-55430000D03*
X213730000Y-52890000D03*
X213730000Y-50350000D03*
X213730000Y-47810000D03*
D17*
X139500000Y-100500000D03*
X139500000Y-62500000D03*
X158500000Y-119500000D03*
X120500000Y-119500000D03*
D18*
X208650000Y-96070000D03*
D15*
X208650000Y-98610000D03*
X206110000Y-96070000D03*
X206110000Y-98610000D03*
X203570000Y-96070000D03*
X203570000Y-98610000D03*
D17*
X139500000Y-119500000D03*
X196500000Y-119500000D03*
D19*
X113400000Y-48875000D03*
X113400000Y-47125000D03*
X108600000Y-47125000D03*
X108600000Y-48875000D03*
X94400000Y-48875000D03*
X94400000Y-47125000D03*
X89600000Y-47125000D03*
X89600000Y-48875000D03*
D20*
X199000000Y-98000000D03*
X212750000Y-98000000D03*
D17*
X177500000Y-119500000D03*
X177500000Y-100500000D03*
X177500000Y-62500000D03*
D20*
X199000000Y-135750000D03*
X212750000Y-135750000D03*
D15*
X197220000Y-101150000D03*
X199760000Y-101150000D03*
X212460000Y-101150000D03*
X209920000Y-101150000D03*
X207380000Y-101150000D03*
X204840000Y-101150000D03*
X202300000Y-101150000D03*
D20*
X199000000Y-116750000D03*
X212750000Y-116750000D03*
X199000000Y-80500000D03*
D15*
X209285000Y-80830000D03*
X206745000Y-80830000D03*
X204205000Y-80830000D03*
X201665000Y-80830000D03*
D17*
X101500000Y-100500000D03*
X101500000Y-119500000D03*
D15*
X209920000Y-70670000D03*
X207380000Y-70670000D03*
X204840000Y-70670000D03*
X202300000Y-70670000D03*
X202300000Y-68130000D03*
X204840000Y-68130000D03*
X207380000Y-68130000D03*
X209920000Y-68130000D03*
X209920000Y-65590000D03*
X207380000Y-65590000D03*
X204840000Y-65590000D03*
X202300000Y-65590000D03*
X202300000Y-63050000D03*
X204840000Y-63050000D03*
X207380000Y-63050000D03*
X209920000Y-63050000D03*
X209920000Y-60510000D03*
X207380000Y-60510000D03*
X204840000Y-60510000D03*
X202300000Y-60510000D03*
X202300000Y-57970000D03*
X204840000Y-57970000D03*
X207380000Y-57970000D03*
X209920000Y-57970000D03*
X209920000Y-55430000D03*
X207380000Y-55430000D03*
X204840000Y-55430000D03*
X202300000Y-55430000D03*
X202300000Y-52890000D03*
X204840000Y-52890000D03*
X207380000Y-52890000D03*
X209920000Y-52890000D03*
X209920000Y-50350000D03*
X207380000Y-50350000D03*
X204840000Y-50350000D03*
X202300000Y-50350000D03*
X202300000Y-47810000D03*
X204840000Y-47810000D03*
X207380000Y-47810000D03*
X209920000Y-47810000D03*
D21*
X209285000Y-77154620D03*
X209285000Y-78155380D03*
X206745000Y-77154620D03*
X206745000Y-78155380D03*
X204205000Y-77154620D03*
X204205000Y-78155380D03*
X201665000Y-77154620D03*
X201665000Y-78155380D03*
D17*
X101500000Y-62500000D03*
D22*
X100000000Y-52725000D03*
X100000000Y-56275000D03*
D18*
X100000000Y-58310000D03*
D15*
X100000000Y-50690000D03*
D22*
X103000000Y-52725000D03*
X103000000Y-56275000D03*
D18*
X103000000Y-58310000D03*
D15*
X103000000Y-50690000D03*
D22*
X120500000Y-52725000D03*
X120500000Y-56275000D03*
D18*
X120500000Y-58310000D03*
D15*
X120500000Y-50690000D03*
D22*
X139500000Y-52625000D03*
X139500000Y-56175000D03*
D18*
X139500000Y-58210000D03*
D15*
X139500000Y-50590000D03*
D22*
X158500000Y-52725000D03*
X158500000Y-56275000D03*
D18*
X158500000Y-58310000D03*
D15*
X158500000Y-50690000D03*
D22*
X177500000Y-52625000D03*
X177500000Y-56175000D03*
D18*
X177500000Y-58210000D03*
D15*
X177500000Y-50590000D03*
D22*
X100000000Y-72725000D03*
X100000000Y-76275000D03*
D18*
X100000000Y-78310000D03*
D15*
X100000000Y-70690000D03*
D22*
X103000000Y-72725000D03*
X103000000Y-76275000D03*
D18*
X103000000Y-78310000D03*
D15*
X103000000Y-70690000D03*
D22*
X120500000Y-72725000D03*
X120500000Y-76275000D03*
D18*
X120500000Y-78310000D03*
D15*
X120500000Y-70690000D03*
D22*
X139500000Y-72725000D03*
X139500000Y-76275000D03*
D18*
X139500000Y-78310000D03*
D15*
X139500000Y-70690000D03*
D22*
X158500000Y-72725000D03*
X158500000Y-76275000D03*
D18*
X158500000Y-78310000D03*
D15*
X158500000Y-70690000D03*
D22*
X177500000Y-72725000D03*
X177500000Y-76275000D03*
D18*
X177500000Y-78310000D03*
D15*
X177500000Y-70690000D03*
D22*
X100000000Y-91225000D03*
X100000000Y-94775000D03*
D18*
X100000000Y-96810000D03*
D15*
X100000000Y-89190000D03*
D22*
X103000000Y-91225000D03*
X103000000Y-94775000D03*
D18*
X103000000Y-96810000D03*
D15*
X103000000Y-89190000D03*
D22*
X120500000Y-91725000D03*
X120500000Y-95275000D03*
D18*
X120500000Y-97310000D03*
D15*
X120500000Y-89690000D03*
D22*
X139500000Y-91225000D03*
X139500000Y-94775000D03*
D18*
X139500000Y-96810000D03*
D15*
X139500000Y-89190000D03*
D22*
X158500000Y-91725000D03*
X158500000Y-95275000D03*
D18*
X158500000Y-97310000D03*
D15*
X158500000Y-89690000D03*
D22*
X177500000Y-91225000D03*
X177500000Y-94775000D03*
D18*
X177500000Y-96810000D03*
D15*
X177500000Y-89190000D03*
D22*
X100000000Y-109725000D03*
X100000000Y-113275000D03*
D18*
X100000000Y-115310000D03*
D15*
X100000000Y-107690000D03*
D22*
X103000000Y-109725000D03*
X103000000Y-113275000D03*
D18*
X103000000Y-115310000D03*
D15*
X103000000Y-107690000D03*
D22*
X120500000Y-109725000D03*
X120500000Y-113275000D03*
D18*
X120500000Y-115310000D03*
D15*
X120500000Y-107690000D03*
D22*
X139500000Y-109725000D03*
X139500000Y-113275000D03*
D18*
X139500000Y-115310000D03*
D15*
X139500000Y-107690000D03*
D22*
X158500000Y-109725000D03*
X158500000Y-113275000D03*
D18*
X158500000Y-115310000D03*
D15*
X158500000Y-107690000D03*
D22*
X177500000Y-109725000D03*
X177500000Y-113275000D03*
D18*
X177500000Y-115310000D03*
D15*
X177500000Y-107690000D03*
D22*
X195000000Y-109725000D03*
X195000000Y-113275000D03*
D18*
X195000000Y-115310000D03*
D15*
X195000000Y-107690000D03*
D22*
X100000000Y-129725000D03*
X100000000Y-133275000D03*
D18*
X100000000Y-135310000D03*
D15*
X100000000Y-127690000D03*
D22*
X103000000Y-129725000D03*
X103000000Y-133275000D03*
D18*
X103000000Y-135310000D03*
D15*
X103000000Y-127690000D03*
D22*
X120500000Y-128225000D03*
X120500000Y-131775000D03*
D18*
X120500000Y-133810000D03*
D15*
X120500000Y-126190000D03*
D22*
X139500000Y-129725000D03*
X139500000Y-133275000D03*
D18*
X139500000Y-135310000D03*
D15*
X139500000Y-127690000D03*
D22*
X158500000Y-129725000D03*
X158500000Y-133275000D03*
D18*
X158500000Y-135310000D03*
D15*
X158500000Y-127690000D03*
D22*
X177500000Y-128000000D03*
X177500000Y-131550000D03*
D18*
X177500000Y-133585000D03*
D15*
X177500000Y-125965000D03*
D22*
X195000000Y-129725000D03*
X195000000Y-133275000D03*
D18*
X195000000Y-135310000D03*
D15*
X195000000Y-127690000D03*
D16*
X197220000Y-49080000D03*
X197220000Y-51620000D03*
X197220000Y-54160000D03*
X197220000Y-56700000D03*
X197220000Y-59240000D03*
X197220000Y-61780000D03*
X197220000Y-64320000D03*
X197220000Y-66860000D03*
X197220000Y-69400000D03*
X197220000Y-71940000D03*
X197220000Y-74480000D03*
X197220000Y-77020000D03*
X212460000Y-77020000D03*
X212460000Y-74480000D03*
X212460000Y-71940000D03*
X212460000Y-69400000D03*
X212460000Y-66860000D03*
X212460000Y-64320000D03*
X212460000Y-61780000D03*
X212460000Y-59240000D03*
X212460000Y-56700000D03*
X212460000Y-54160000D03*
X212460000Y-51620000D03*
X212460000Y-49080000D03*
D20*
X212750000Y-80500000D03*
D19*
X132400000Y-48875000D03*
X132400000Y-47125000D03*
X127600000Y-47125000D03*
X127600000Y-48875000D03*
X151400000Y-48875000D03*
X151400000Y-47125000D03*
X146600000Y-47125000D03*
X146600000Y-48875000D03*
X170400000Y-48875000D03*
X170400000Y-47125000D03*
X165600000Y-47125000D03*
X165600000Y-48875000D03*
X89600000Y-66125000D03*
X89600000Y-67875000D03*
X94400000Y-67875000D03*
X94400000Y-66125000D03*
X108600000Y-66125000D03*
X108600000Y-67875000D03*
X113400000Y-67875000D03*
X113400000Y-66125000D03*
X127600000Y-66125000D03*
X127600000Y-67875000D03*
X132400000Y-67875000D03*
X132400000Y-66125000D03*
X146600000Y-66125000D03*
X146600000Y-67875000D03*
X151400000Y-67875000D03*
X151400000Y-66125000D03*
X165600000Y-66125000D03*
X165600000Y-67875000D03*
X170400000Y-67875000D03*
X170400000Y-66125000D03*
X184600000Y-66125000D03*
X184600000Y-67875000D03*
X189400000Y-67875000D03*
X189400000Y-66125000D03*
X94400000Y-86875000D03*
X94400000Y-85125000D03*
X89600000Y-85125000D03*
X89600000Y-86875000D03*
X113400000Y-86875000D03*
X113400000Y-85125000D03*
X108600000Y-85125000D03*
X108600000Y-86875000D03*
X132400000Y-86875000D03*
X132400000Y-85125000D03*
X127600000Y-85125000D03*
X127600000Y-86875000D03*
X151400000Y-86875000D03*
X151400000Y-85125000D03*
X146600000Y-85125000D03*
X146600000Y-86875000D03*
X170400000Y-86875000D03*
X170400000Y-85125000D03*
X165600000Y-85125000D03*
X165600000Y-86875000D03*
X189400000Y-86875000D03*
X189400000Y-85125000D03*
X184600000Y-85125000D03*
X184600000Y-86875000D03*
X89600000Y-104125000D03*
X89600000Y-105875000D03*
X94400000Y-105875000D03*
X94400000Y-104125000D03*
X108600000Y-104125000D03*
X108600000Y-105875000D03*
X113400000Y-105875000D03*
X113400000Y-104125000D03*
X127600000Y-104125000D03*
X127600000Y-105875000D03*
X132400000Y-105875000D03*
X132400000Y-104125000D03*
X146600000Y-104125000D03*
X146600000Y-105875000D03*
X151400000Y-105875000D03*
X151400000Y-104125000D03*
X165600000Y-104125000D03*
X165600000Y-105875000D03*
X170400000Y-105875000D03*
X170400000Y-104125000D03*
X184600000Y-104125000D03*
X184600000Y-105875000D03*
X189400000Y-105875000D03*
X189400000Y-104125000D03*
X203600000Y-104125000D03*
X203600000Y-105875000D03*
X208400000Y-105875000D03*
X208400000Y-104125000D03*
X94400000Y-124875000D03*
X94400000Y-123125000D03*
X89600000Y-123125000D03*
X89600000Y-124875000D03*
X113400000Y-124875000D03*
X113400000Y-123125000D03*
X108600000Y-123125000D03*
X108600000Y-124875000D03*
X132400000Y-124875000D03*
X132400000Y-123125000D03*
X127600000Y-123125000D03*
X127600000Y-124875000D03*
X151400000Y-124875000D03*
X151400000Y-123125000D03*
X146600000Y-123125000D03*
X146600000Y-124875000D03*
X170400000Y-124875000D03*
X170400000Y-123125000D03*
X165600000Y-123125000D03*
X165600000Y-124875000D03*
X189400000Y-124875000D03*
X189400000Y-123125000D03*
X184600000Y-123125000D03*
X184600000Y-124875000D03*
X208400000Y-124875000D03*
X208400000Y-123125000D03*
X203600000Y-123125000D03*
X203600000Y-124875000D03*
X189400000Y-48875000D03*
X189400000Y-47125000D03*
X184600000Y-47125000D03*
X184600000Y-48875000D03*
D23*
X195000000Y-86580000D03*
X195000000Y-84040000D03*
X195000000Y-81500000D03*
D13*
X135220000Y-67800000D03*
X124780000Y-67800000D03*
D24*
X135080000Y-72000000D03*
X124920000Y-72000000D03*
D25*
X132540000Y-76500000D03*
X132540000Y-76000000D03*
X127460000Y-76000000D03*
X127460000Y-76500000D03*
D26*
X126190000Y-74540000D03*
D27*
X126591742Y-75018778D02*
X125788258Y-74061222D01*
D25*
X132540000Y-77080000D03*
D26*
X133810000Y-74540000D03*
D27*
X134211742Y-74061222D02*
X133408258Y-75018778D01*
D25*
X127460000Y-77080000D03*
D20*
X130000000Y-77900000D03*
D28*
X135100000Y-75900000D03*
D29*
X135405324Y-75536129D02*
X134794676Y-76263871D01*
D30*
X124500000Y-72000000D03*
X135500000Y-72000000D03*
D31*
X130000000Y-72000000D03*
D28*
X124900000Y-75900000D03*
D29*
X125205324Y-76263871D02*
X124594676Y-75536129D01*
D13*
X154220000Y-48800000D03*
X143780000Y-48800000D03*
D24*
X154080000Y-53000000D03*
X143920000Y-53000000D03*
D25*
X151540000Y-57500000D03*
X151540000Y-57000000D03*
X146460000Y-57000000D03*
X146460000Y-57500000D03*
D26*
X145190000Y-55540000D03*
D27*
X145591742Y-56018778D02*
X144788258Y-55061222D01*
D25*
X151540000Y-58080000D03*
D26*
X152810000Y-55540000D03*
D27*
X153211742Y-55061222D02*
X152408258Y-56018778D01*
D25*
X146460000Y-58080000D03*
D20*
X149000000Y-58900000D03*
D28*
X154100000Y-56900000D03*
D29*
X154405324Y-56536129D02*
X153794676Y-57263871D01*
D30*
X143500000Y-53000000D03*
X154500000Y-53000000D03*
D31*
X149000000Y-53000000D03*
D28*
X143900000Y-56900000D03*
D29*
X144205324Y-57263871D02*
X143594676Y-56536129D01*
D13*
X97220000Y-48800000D03*
X86780000Y-48800000D03*
D24*
X97080000Y-53000000D03*
X86920000Y-53000000D03*
D25*
X94540000Y-57500000D03*
X94540000Y-57000000D03*
X89460000Y-57000000D03*
X89460000Y-57500000D03*
D26*
X88190000Y-55540000D03*
D27*
X88591742Y-56018778D02*
X87788258Y-55061222D01*
D25*
X94540000Y-58080000D03*
D26*
X95810000Y-55540000D03*
D27*
X96211742Y-55061222D02*
X95408258Y-56018778D01*
D25*
X89460000Y-58080000D03*
D20*
X92000000Y-58900000D03*
D28*
X97100000Y-56900000D03*
D29*
X97405324Y-56536129D02*
X96794676Y-57263871D01*
D30*
X86500000Y-53000000D03*
X97500000Y-53000000D03*
D31*
X92000000Y-53000000D03*
D28*
X86900000Y-56900000D03*
D29*
X87205324Y-57263871D02*
X86594676Y-56536129D01*
D13*
X211220000Y-124800000D03*
X200780000Y-124800000D03*
D24*
X211080000Y-129000000D03*
X200920000Y-129000000D03*
D25*
X208540000Y-133500000D03*
X208540000Y-133000000D03*
X203460000Y-133000000D03*
X203460000Y-133500000D03*
D26*
X202190000Y-131540000D03*
D27*
X202591742Y-132018778D02*
X201788258Y-131061222D01*
D25*
X208540000Y-134080000D03*
D26*
X209810000Y-131540000D03*
D27*
X210211742Y-131061222D02*
X209408258Y-132018778D01*
D25*
X203460000Y-134080000D03*
D20*
X206000000Y-134900000D03*
D28*
X211100000Y-132900000D03*
D29*
X211405324Y-132536129D02*
X210794676Y-133263871D01*
D30*
X200500000Y-129000000D03*
X211500000Y-129000000D03*
D31*
X206000000Y-129000000D03*
D28*
X200900000Y-132900000D03*
D29*
X201205324Y-133263871D02*
X200594676Y-132536129D01*
D13*
X192220000Y-124800000D03*
X181780000Y-124800000D03*
D24*
X192080000Y-129000000D03*
X181920000Y-129000000D03*
D25*
X189540000Y-133500000D03*
X189540000Y-133000000D03*
X184460000Y-133000000D03*
X184460000Y-133500000D03*
D26*
X183190000Y-131540000D03*
D27*
X183591742Y-132018778D02*
X182788258Y-131061222D01*
D25*
X189540000Y-134080000D03*
D26*
X190810000Y-131540000D03*
D27*
X191211742Y-131061222D02*
X190408258Y-132018778D01*
D25*
X184460000Y-134080000D03*
D20*
X187000000Y-134900000D03*
D28*
X192100000Y-132900000D03*
D29*
X192405324Y-132536129D02*
X191794676Y-133263871D01*
D30*
X181500000Y-129000000D03*
X192500000Y-129000000D03*
D31*
X187000000Y-129000000D03*
D28*
X181900000Y-132900000D03*
D29*
X182205324Y-133263871D02*
X181594676Y-132536129D01*
D13*
X173220000Y-124800000D03*
X162780000Y-124800000D03*
D24*
X173080000Y-129000000D03*
X162920000Y-129000000D03*
D25*
X170540000Y-133500000D03*
X170540000Y-133000000D03*
X165460000Y-133000000D03*
X165460000Y-133500000D03*
D26*
X164190000Y-131540000D03*
D27*
X164591742Y-132018778D02*
X163788258Y-131061222D01*
D25*
X170540000Y-134080000D03*
D26*
X171810000Y-131540000D03*
D27*
X172211742Y-131061222D02*
X171408258Y-132018778D01*
D25*
X165460000Y-134080000D03*
D20*
X168000000Y-134900000D03*
D28*
X173100000Y-132900000D03*
D29*
X173405324Y-132536129D02*
X172794676Y-133263871D01*
D30*
X162500000Y-129000000D03*
X173500000Y-129000000D03*
D31*
X168000000Y-129000000D03*
D28*
X162900000Y-132900000D03*
D29*
X163205324Y-133263871D02*
X162594676Y-132536129D01*
D13*
X154220000Y-124800000D03*
X143780000Y-124800000D03*
D24*
X154080000Y-129000000D03*
X143920000Y-129000000D03*
D25*
X151540000Y-133500000D03*
X151540000Y-133000000D03*
X146460000Y-133000000D03*
X146460000Y-133500000D03*
D26*
X145190000Y-131540000D03*
D27*
X145591742Y-132018778D02*
X144788258Y-131061222D01*
D25*
X151540000Y-134080000D03*
D26*
X152810000Y-131540000D03*
D27*
X153211742Y-131061222D02*
X152408258Y-132018778D01*
D25*
X146460000Y-134080000D03*
D20*
X149000000Y-134900000D03*
D28*
X154100000Y-132900000D03*
D29*
X154405324Y-132536129D02*
X153794676Y-133263871D01*
D30*
X143500000Y-129000000D03*
X154500000Y-129000000D03*
D31*
X149000000Y-129000000D03*
D28*
X143900000Y-132900000D03*
D29*
X144205324Y-133263871D02*
X143594676Y-132536129D01*
D13*
X135220000Y-124800000D03*
X124780000Y-124800000D03*
D24*
X135080000Y-129000000D03*
X124920000Y-129000000D03*
D25*
X132540000Y-133500000D03*
X132540000Y-133000000D03*
X127460000Y-133000000D03*
X127460000Y-133500000D03*
D26*
X126190000Y-131540000D03*
D27*
X126591742Y-132018778D02*
X125788258Y-131061222D01*
D25*
X132540000Y-134080000D03*
D26*
X133810000Y-131540000D03*
D27*
X134211742Y-131061222D02*
X133408258Y-132018778D01*
D25*
X127460000Y-134080000D03*
D20*
X130000000Y-134900000D03*
D28*
X135100000Y-132900000D03*
D29*
X135405324Y-132536129D02*
X134794676Y-133263871D01*
D30*
X124500000Y-129000000D03*
X135500000Y-129000000D03*
D31*
X130000000Y-129000000D03*
D28*
X124900000Y-132900000D03*
D29*
X125205324Y-133263871D02*
X124594676Y-132536129D01*
D13*
X116220000Y-124800000D03*
X105780000Y-124800000D03*
D24*
X116080000Y-129000000D03*
X105920000Y-129000000D03*
D25*
X113540000Y-133500000D03*
X113540000Y-133000000D03*
X108460000Y-133000000D03*
X108460000Y-133500000D03*
D26*
X107190000Y-131540000D03*
D27*
X107591742Y-132018778D02*
X106788258Y-131061222D01*
D25*
X113540000Y-134080000D03*
D26*
X114810000Y-131540000D03*
D27*
X115211742Y-131061222D02*
X114408258Y-132018778D01*
D25*
X108460000Y-134080000D03*
D20*
X111000000Y-134900000D03*
D28*
X116100000Y-132900000D03*
D29*
X116405324Y-132536129D02*
X115794676Y-133263871D01*
D30*
X105500000Y-129000000D03*
X116500000Y-129000000D03*
D31*
X111000000Y-129000000D03*
D28*
X105900000Y-132900000D03*
D29*
X106205324Y-133263871D02*
X105594676Y-132536129D01*
D13*
X97220000Y-124800000D03*
X86780000Y-124800000D03*
D24*
X97080000Y-129000000D03*
X86920000Y-129000000D03*
D25*
X94540000Y-133500000D03*
X94540000Y-133000000D03*
X89460000Y-133000000D03*
X89460000Y-133500000D03*
D26*
X88190000Y-131540000D03*
D27*
X88591742Y-132018778D02*
X87788258Y-131061222D01*
D25*
X94540000Y-134080000D03*
D26*
X95810000Y-131540000D03*
D27*
X96211742Y-131061222D02*
X95408258Y-132018778D01*
D25*
X89460000Y-134080000D03*
D20*
X92000000Y-134900000D03*
D28*
X97100000Y-132900000D03*
D29*
X97405324Y-132536129D02*
X96794676Y-133263871D01*
D30*
X86500000Y-129000000D03*
X97500000Y-129000000D03*
D31*
X92000000Y-129000000D03*
D28*
X86900000Y-132900000D03*
D29*
X87205324Y-133263871D02*
X86594676Y-132536129D01*
D13*
X211220000Y-105800000D03*
X200780000Y-105800000D03*
D24*
X211080000Y-110000000D03*
X200920000Y-110000000D03*
D25*
X208540000Y-114500000D03*
X208540000Y-114000000D03*
X203460000Y-114000000D03*
X203460000Y-114500000D03*
D26*
X202190000Y-112540000D03*
D27*
X202591742Y-113018778D02*
X201788258Y-112061222D01*
D25*
X208540000Y-115080000D03*
D26*
X209810000Y-112540000D03*
D27*
X210211742Y-112061222D02*
X209408258Y-113018778D01*
D25*
X203460000Y-115080000D03*
D20*
X206000000Y-115900000D03*
D28*
X211100000Y-113900000D03*
D29*
X211405324Y-113536129D02*
X210794676Y-114263871D01*
D30*
X200500000Y-110000000D03*
X211500000Y-110000000D03*
D31*
X206000000Y-110000000D03*
D28*
X200900000Y-113900000D03*
D29*
X201205324Y-114263871D02*
X200594676Y-113536129D01*
D13*
X192220000Y-105800000D03*
X181780000Y-105800000D03*
D24*
X192080000Y-110000000D03*
X181920000Y-110000000D03*
D25*
X189540000Y-114500000D03*
X189540000Y-114000000D03*
X184460000Y-114000000D03*
X184460000Y-114500000D03*
D26*
X183190000Y-112540000D03*
D27*
X183591742Y-113018778D02*
X182788258Y-112061222D01*
D25*
X189540000Y-115080000D03*
D26*
X190810000Y-112540000D03*
D27*
X191211742Y-112061222D02*
X190408258Y-113018778D01*
D25*
X184460000Y-115080000D03*
D20*
X187000000Y-115900000D03*
D28*
X192100000Y-113900000D03*
D29*
X192405324Y-113536129D02*
X191794676Y-114263871D01*
D30*
X181500000Y-110000000D03*
X192500000Y-110000000D03*
D31*
X187000000Y-110000000D03*
D28*
X181900000Y-113900000D03*
D29*
X182205324Y-114263871D02*
X181594676Y-113536129D01*
D13*
X173220000Y-105800000D03*
X162780000Y-105800000D03*
D24*
X173080000Y-110000000D03*
X162920000Y-110000000D03*
D25*
X170540000Y-114500000D03*
X170540000Y-114000000D03*
X165460000Y-114000000D03*
X165460000Y-114500000D03*
D26*
X164190000Y-112540000D03*
D27*
X164591742Y-113018778D02*
X163788258Y-112061222D01*
D25*
X170540000Y-115080000D03*
D26*
X171810000Y-112540000D03*
D27*
X172211742Y-112061222D02*
X171408258Y-113018778D01*
D25*
X165460000Y-115080000D03*
D20*
X168000000Y-115900000D03*
D28*
X173100000Y-113900000D03*
D29*
X173405324Y-113536129D02*
X172794676Y-114263871D01*
D30*
X162500000Y-110000000D03*
X173500000Y-110000000D03*
D31*
X168000000Y-110000000D03*
D28*
X162900000Y-113900000D03*
D29*
X163205324Y-114263871D02*
X162594676Y-113536129D01*
D13*
X154220000Y-105800000D03*
X143780000Y-105800000D03*
D24*
X154080000Y-110000000D03*
X143920000Y-110000000D03*
D25*
X151540000Y-114500000D03*
X151540000Y-114000000D03*
X146460000Y-114000000D03*
X146460000Y-114500000D03*
D26*
X145190000Y-112540000D03*
D27*
X145591742Y-113018778D02*
X144788258Y-112061222D01*
D25*
X151540000Y-115080000D03*
D26*
X152810000Y-112540000D03*
D27*
X153211742Y-112061222D02*
X152408258Y-113018778D01*
D25*
X146460000Y-115080000D03*
D20*
X149000000Y-115900000D03*
D28*
X154100000Y-113900000D03*
D29*
X154405324Y-113536129D02*
X153794676Y-114263871D01*
D30*
X143500000Y-110000000D03*
X154500000Y-110000000D03*
D31*
X149000000Y-110000000D03*
D28*
X143900000Y-113900000D03*
D29*
X144205324Y-114263871D02*
X143594676Y-113536129D01*
D13*
X135220000Y-105800000D03*
X124780000Y-105800000D03*
D24*
X135080000Y-110000000D03*
X124920000Y-110000000D03*
D25*
X132540000Y-114500000D03*
X132540000Y-114000000D03*
X127460000Y-114000000D03*
X127460000Y-114500000D03*
D26*
X126190000Y-112540000D03*
D27*
X126591742Y-113018778D02*
X125788258Y-112061222D01*
D25*
X132540000Y-115080000D03*
D26*
X133810000Y-112540000D03*
D27*
X134211742Y-112061222D02*
X133408258Y-113018778D01*
D25*
X127460000Y-115080000D03*
D20*
X130000000Y-115900000D03*
D28*
X135100000Y-113900000D03*
D29*
X135405324Y-113536129D02*
X134794676Y-114263871D01*
D30*
X124500000Y-110000000D03*
X135500000Y-110000000D03*
D31*
X130000000Y-110000000D03*
D28*
X124900000Y-113900000D03*
D29*
X125205324Y-114263871D02*
X124594676Y-113536129D01*
D13*
X116220000Y-105800000D03*
X105780000Y-105800000D03*
D24*
X116080000Y-110000000D03*
X105920000Y-110000000D03*
D25*
X113540000Y-114500000D03*
X113540000Y-114000000D03*
X108460000Y-114000000D03*
X108460000Y-114500000D03*
D26*
X107190000Y-112540000D03*
D27*
X107591742Y-113018778D02*
X106788258Y-112061222D01*
D25*
X113540000Y-115080000D03*
D26*
X114810000Y-112540000D03*
D27*
X115211742Y-112061222D02*
X114408258Y-113018778D01*
D25*
X108460000Y-115080000D03*
D20*
X111000000Y-115900000D03*
D28*
X116100000Y-113900000D03*
D29*
X116405324Y-113536129D02*
X115794676Y-114263871D01*
D30*
X105500000Y-110000000D03*
X116500000Y-110000000D03*
D31*
X111000000Y-110000000D03*
D28*
X105900000Y-113900000D03*
D29*
X106205324Y-114263871D02*
X105594676Y-113536129D01*
D13*
X97220000Y-105800000D03*
X86780000Y-105800000D03*
D24*
X97080000Y-110000000D03*
X86920000Y-110000000D03*
D25*
X94540000Y-114500000D03*
X94540000Y-114000000D03*
X89460000Y-114000000D03*
X89460000Y-114500000D03*
D26*
X88190000Y-112540000D03*
D27*
X88591742Y-113018778D02*
X87788258Y-112061222D01*
D25*
X94540000Y-115080000D03*
D26*
X95810000Y-112540000D03*
D27*
X96211742Y-112061222D02*
X95408258Y-113018778D01*
D25*
X89460000Y-115080000D03*
D20*
X92000000Y-115900000D03*
D28*
X97100000Y-113900000D03*
D29*
X97405324Y-113536129D02*
X96794676Y-114263871D01*
D30*
X86500000Y-110000000D03*
X97500000Y-110000000D03*
D31*
X92000000Y-110000000D03*
D28*
X86900000Y-113900000D03*
D29*
X87205324Y-114263871D02*
X86594676Y-113536129D01*
D13*
X192220000Y-86800000D03*
X181780000Y-86800000D03*
D24*
X192080000Y-91000000D03*
X181920000Y-91000000D03*
D25*
X189540000Y-95500000D03*
X189540000Y-95000000D03*
X184460000Y-95000000D03*
X184460000Y-95500000D03*
D26*
X183190000Y-93540000D03*
D27*
X183591742Y-94018778D02*
X182788258Y-93061222D01*
D25*
X189540000Y-96080000D03*
D26*
X190810000Y-93540000D03*
D27*
X191211742Y-93061222D02*
X190408258Y-94018778D01*
D25*
X184460000Y-96080000D03*
D20*
X187000000Y-96900000D03*
D28*
X192100000Y-94900000D03*
D29*
X192405324Y-94536129D02*
X191794676Y-95263871D01*
D30*
X181500000Y-91000000D03*
X192500000Y-91000000D03*
D31*
X187000000Y-91000000D03*
D28*
X181900000Y-94900000D03*
D29*
X182205324Y-95263871D02*
X181594676Y-94536129D01*
D13*
X173220000Y-86800000D03*
X162780000Y-86800000D03*
D24*
X173080000Y-91000000D03*
X162920000Y-91000000D03*
D25*
X170540000Y-95500000D03*
X170540000Y-95000000D03*
X165460000Y-95000000D03*
X165460000Y-95500000D03*
D26*
X164190000Y-93540000D03*
D27*
X164591742Y-94018778D02*
X163788258Y-93061222D01*
D25*
X170540000Y-96080000D03*
D26*
X171810000Y-93540000D03*
D27*
X172211742Y-93061222D02*
X171408258Y-94018778D01*
D25*
X165460000Y-96080000D03*
D20*
X168000000Y-96900000D03*
D28*
X173100000Y-94900000D03*
D29*
X173405324Y-94536129D02*
X172794676Y-95263871D01*
D30*
X162500000Y-91000000D03*
X173500000Y-91000000D03*
D31*
X168000000Y-91000000D03*
D28*
X162900000Y-94900000D03*
D29*
X163205324Y-95263871D02*
X162594676Y-94536129D01*
D13*
X154220000Y-86800000D03*
X143780000Y-86800000D03*
D24*
X154080000Y-91000000D03*
X143920000Y-91000000D03*
D25*
X151540000Y-95500000D03*
X151540000Y-95000000D03*
X146460000Y-95000000D03*
X146460000Y-95500000D03*
D26*
X145190000Y-93540000D03*
D27*
X145591742Y-94018778D02*
X144788258Y-93061222D01*
D25*
X151540000Y-96080000D03*
D26*
X152810000Y-93540000D03*
D27*
X153211742Y-93061222D02*
X152408258Y-94018778D01*
D25*
X146460000Y-96080000D03*
D20*
X149000000Y-96900000D03*
D28*
X154100000Y-94900000D03*
D29*
X154405324Y-94536129D02*
X153794676Y-95263871D01*
D30*
X143500000Y-91000000D03*
X154500000Y-91000000D03*
D31*
X149000000Y-91000000D03*
D28*
X143900000Y-94900000D03*
D29*
X144205324Y-95263871D02*
X143594676Y-94536129D01*
D13*
X135220000Y-86800000D03*
X124780000Y-86800000D03*
D24*
X135080000Y-91000000D03*
X124920000Y-91000000D03*
D25*
X132540000Y-95500000D03*
X132540000Y-95000000D03*
X127460000Y-95000000D03*
X127460000Y-95500000D03*
D26*
X126190000Y-93540000D03*
D27*
X126591742Y-94018778D02*
X125788258Y-93061222D01*
D25*
X132540000Y-96080000D03*
D26*
X133810000Y-93540000D03*
D27*
X134211742Y-93061222D02*
X133408258Y-94018778D01*
D25*
X127460000Y-96080000D03*
D20*
X130000000Y-96900000D03*
D28*
X135100000Y-94900000D03*
D29*
X135405324Y-94536129D02*
X134794676Y-95263871D01*
D30*
X124500000Y-91000000D03*
X135500000Y-91000000D03*
D31*
X130000000Y-91000000D03*
D28*
X124900000Y-94900000D03*
D29*
X125205324Y-95263871D02*
X124594676Y-94536129D01*
D13*
X116220000Y-86800000D03*
X105780000Y-86800000D03*
D24*
X116080000Y-91000000D03*
X105920000Y-91000000D03*
D25*
X113540000Y-95500000D03*
X113540000Y-95000000D03*
X108460000Y-95000000D03*
X108460000Y-95500000D03*
D26*
X107190000Y-93540000D03*
D27*
X107591742Y-94018778D02*
X106788258Y-93061222D01*
D25*
X113540000Y-96080000D03*
D26*
X114810000Y-93540000D03*
D27*
X115211742Y-93061222D02*
X114408258Y-94018778D01*
D25*
X108460000Y-96080000D03*
D20*
X111000000Y-96900000D03*
D28*
X116100000Y-94900000D03*
D29*
X116405324Y-94536129D02*
X115794676Y-95263871D01*
D30*
X105500000Y-91000000D03*
X116500000Y-91000000D03*
D31*
X111000000Y-91000000D03*
D28*
X105900000Y-94900000D03*
D29*
X106205324Y-95263871D02*
X105594676Y-94536129D01*
D13*
X97220000Y-86800000D03*
X86780000Y-86800000D03*
D24*
X97080000Y-91000000D03*
X86920000Y-91000000D03*
D25*
X94540000Y-95500000D03*
X94540000Y-95000000D03*
X89460000Y-95000000D03*
X89460000Y-95500000D03*
D26*
X88190000Y-93540000D03*
D27*
X88591742Y-94018778D02*
X87788258Y-93061222D01*
D25*
X94540000Y-96080000D03*
D26*
X95810000Y-93540000D03*
D27*
X96211742Y-93061222D02*
X95408258Y-94018778D01*
D25*
X89460000Y-96080000D03*
D20*
X92000000Y-96900000D03*
D28*
X97100000Y-94900000D03*
D29*
X97405324Y-94536129D02*
X96794676Y-95263871D01*
D30*
X86500000Y-91000000D03*
X97500000Y-91000000D03*
D31*
X92000000Y-91000000D03*
D28*
X86900000Y-94900000D03*
D29*
X87205324Y-95263871D02*
X86594676Y-94536129D01*
D13*
X192220000Y-67800000D03*
X181780000Y-67800000D03*
D24*
X192080000Y-72000000D03*
X181920000Y-72000000D03*
D25*
X189540000Y-76500000D03*
X189540000Y-76000000D03*
X184460000Y-76000000D03*
X184460000Y-76500000D03*
D26*
X183190000Y-74540000D03*
D27*
X183591742Y-75018778D02*
X182788258Y-74061222D01*
D25*
X189540000Y-77080000D03*
D26*
X190810000Y-74540000D03*
D27*
X191211742Y-74061222D02*
X190408258Y-75018778D01*
D25*
X184460000Y-77080000D03*
D20*
X187000000Y-77900000D03*
D28*
X192100000Y-75900000D03*
D29*
X192405324Y-75536129D02*
X191794676Y-76263871D01*
D30*
X181500000Y-72000000D03*
X192500000Y-72000000D03*
D31*
X187000000Y-72000000D03*
D28*
X181900000Y-75900000D03*
D29*
X182205324Y-76263871D02*
X181594676Y-75536129D01*
D13*
X173220000Y-67800000D03*
X162780000Y-67800000D03*
D24*
X173080000Y-72000000D03*
X162920000Y-72000000D03*
D25*
X170540000Y-76500000D03*
X170540000Y-76000000D03*
X165460000Y-76000000D03*
X165460000Y-76500000D03*
D26*
X164190000Y-74540000D03*
D27*
X164591742Y-75018778D02*
X163788258Y-74061222D01*
D25*
X170540000Y-77080000D03*
D26*
X171810000Y-74540000D03*
D27*
X172211742Y-74061222D02*
X171408258Y-75018778D01*
D25*
X165460000Y-77080000D03*
D20*
X168000000Y-77900000D03*
D28*
X173100000Y-75900000D03*
D29*
X173405324Y-75536129D02*
X172794676Y-76263871D01*
D30*
X162500000Y-72000000D03*
X173500000Y-72000000D03*
D31*
X168000000Y-72000000D03*
D28*
X162900000Y-75900000D03*
D29*
X163205324Y-76263871D02*
X162594676Y-75536129D01*
D13*
X154220000Y-67800000D03*
X143780000Y-67800000D03*
D24*
X154080000Y-72000000D03*
X143920000Y-72000000D03*
D25*
X151540000Y-76500000D03*
X151540000Y-76000000D03*
X146460000Y-76000000D03*
X146460000Y-76500000D03*
D26*
X145190000Y-74540000D03*
D27*
X145591742Y-75018778D02*
X144788258Y-74061222D01*
D25*
X151540000Y-77080000D03*
D26*
X152810000Y-74540000D03*
D27*
X153211742Y-74061222D02*
X152408258Y-75018778D01*
D25*
X146460000Y-77080000D03*
D20*
X149000000Y-77900000D03*
D28*
X154100000Y-75900000D03*
D29*
X154405324Y-75536129D02*
X153794676Y-76263871D01*
D30*
X143500000Y-72000000D03*
X154500000Y-72000000D03*
D31*
X149000000Y-72000000D03*
D28*
X143900000Y-75900000D03*
D29*
X144205324Y-76263871D02*
X143594676Y-75536129D01*
D13*
X116220000Y-67800000D03*
X105780000Y-67800000D03*
D24*
X116080000Y-72000000D03*
X105920000Y-72000000D03*
D25*
X113540000Y-76500000D03*
X113540000Y-76000000D03*
X108460000Y-76000000D03*
X108460000Y-76500000D03*
D26*
X107190000Y-74540000D03*
D27*
X107591742Y-75018778D02*
X106788258Y-74061222D01*
D25*
X113540000Y-77080000D03*
D26*
X114810000Y-74540000D03*
D27*
X115211742Y-74061222D02*
X114408258Y-75018778D01*
D25*
X108460000Y-77080000D03*
D20*
X111000000Y-77900000D03*
D28*
X116100000Y-75900000D03*
D29*
X116405324Y-75536129D02*
X115794676Y-76263871D01*
D30*
X105500000Y-72000000D03*
X116500000Y-72000000D03*
D31*
X111000000Y-72000000D03*
D28*
X105900000Y-75900000D03*
D29*
X106205324Y-76263871D02*
X105594676Y-75536129D01*
D13*
X97220000Y-67800000D03*
X86780000Y-67800000D03*
D24*
X97080000Y-72000000D03*
X86920000Y-72000000D03*
D25*
X94540000Y-76500000D03*
X94540000Y-76000000D03*
X89460000Y-76000000D03*
X89460000Y-76500000D03*
D26*
X88190000Y-74540000D03*
D27*
X88591742Y-75018778D02*
X87788258Y-74061222D01*
D25*
X94540000Y-77080000D03*
D26*
X95810000Y-74540000D03*
D27*
X96211742Y-74061222D02*
X95408258Y-75018778D01*
D25*
X89460000Y-77080000D03*
D20*
X92000000Y-77900000D03*
D28*
X97100000Y-75900000D03*
D29*
X97405324Y-75536129D02*
X96794676Y-76263871D01*
D30*
X86500000Y-72000000D03*
X97500000Y-72000000D03*
D31*
X92000000Y-72000000D03*
D28*
X86900000Y-75900000D03*
D29*
X87205324Y-76263871D02*
X86594676Y-75536129D01*
D13*
X173220000Y-48800000D03*
X162780000Y-48800000D03*
D24*
X173080000Y-53000000D03*
X162920000Y-53000000D03*
D25*
X170540000Y-57500000D03*
X170540000Y-57000000D03*
X165460000Y-57000000D03*
X165460000Y-57500000D03*
D26*
X164190000Y-55540000D03*
D27*
X164591742Y-56018778D02*
X163788258Y-55061222D01*
D25*
X170540000Y-58080000D03*
D26*
X171810000Y-55540000D03*
D27*
X172211742Y-55061222D02*
X171408258Y-56018778D01*
D25*
X165460000Y-58080000D03*
D20*
X168000000Y-58900000D03*
D28*
X173100000Y-56900000D03*
D29*
X173405324Y-56536129D02*
X172794676Y-57263871D01*
D30*
X162500000Y-53000000D03*
X173500000Y-53000000D03*
D31*
X168000000Y-53000000D03*
D28*
X162900000Y-56900000D03*
D29*
X163205324Y-57263871D02*
X162594676Y-56536129D01*
D13*
X135220000Y-48800000D03*
X124780000Y-48800000D03*
D24*
X135080000Y-53000000D03*
X124920000Y-53000000D03*
D25*
X132540000Y-57500000D03*
X132540000Y-57000000D03*
X127460000Y-57000000D03*
X127460000Y-57500000D03*
D26*
X126190000Y-55540000D03*
D27*
X126591742Y-56018778D02*
X125788258Y-55061222D01*
D25*
X132540000Y-58080000D03*
D26*
X133810000Y-55540000D03*
D27*
X134211742Y-55061222D02*
X133408258Y-56018778D01*
D25*
X127460000Y-58080000D03*
D20*
X130000000Y-58900000D03*
D28*
X135100000Y-56900000D03*
D29*
X135405324Y-56536129D02*
X134794676Y-57263871D01*
D30*
X124500000Y-53000000D03*
X135500000Y-53000000D03*
D31*
X130000000Y-53000000D03*
D28*
X124900000Y-56900000D03*
D29*
X125205324Y-57263871D02*
X124594676Y-56536129D01*
D13*
X116220000Y-48800000D03*
X105780000Y-48800000D03*
D24*
X116080000Y-53000000D03*
X105920000Y-53000000D03*
D25*
X113540000Y-57500000D03*
X113540000Y-57000000D03*
X108460000Y-57000000D03*
X108460000Y-57500000D03*
D26*
X107190000Y-55540000D03*
D27*
X107591742Y-56018778D02*
X106788258Y-55061222D01*
D25*
X113540000Y-58080000D03*
D26*
X114810000Y-55540000D03*
D27*
X115211742Y-55061222D02*
X114408258Y-56018778D01*
D25*
X108460000Y-58080000D03*
D20*
X111000000Y-58900000D03*
D28*
X116100000Y-56900000D03*
D29*
X116405324Y-56536129D02*
X115794676Y-57263871D01*
D30*
X105500000Y-53000000D03*
X116500000Y-53000000D03*
D31*
X111000000Y-53000000D03*
D28*
X105900000Y-56900000D03*
D29*
X106205324Y-57263871D02*
X105594676Y-56536129D01*
D13*
X192220000Y-48800000D03*
X181780000Y-48800000D03*
D24*
X192080000Y-53000000D03*
X181920000Y-53000000D03*
D25*
X189540000Y-57500000D03*
X189540000Y-57000000D03*
X184460000Y-57000000D03*
X184460000Y-57500000D03*
D26*
X183190000Y-55540000D03*
D27*
X183591742Y-56018778D02*
X182788258Y-55061222D01*
D25*
X189540000Y-58080000D03*
D26*
X190810000Y-55540000D03*
D27*
X191211742Y-55061222D02*
X190408258Y-56018778D01*
D25*
X184460000Y-58080000D03*
D20*
X187000000Y-58900000D03*
D28*
X192100000Y-56900000D03*
D29*
X192405324Y-56536129D02*
X191794676Y-57263871D01*
D30*
X181500000Y-53000000D03*
X192500000Y-53000000D03*
D31*
X187000000Y-53000000D03*
D28*
X181900000Y-56900000D03*
D29*
X182205324Y-57263871D02*
X181594676Y-56536129D01*
M02*
