G04 #@! TF.GenerationSoftware,KiCad,Pcbnew,(5.1.2)-2*
G04 #@! TF.CreationDate,2019-08-20T00:13:47-05:00*
G04 #@! TF.ProjectId,helix,68656c69-782e-46b6-9963-61645f706362,rev?*
G04 #@! TF.SameCoordinates,Original*
G04 #@! TF.FileFunction,Soldermask,Top*
G04 #@! TF.FilePolarity,Negative*
%FSLAX46Y46*%
G04 Gerber Fmt 4.6, Leading zero omitted, Abs format (unit mm)*
G04 Created by KiCad (PCBNEW (5.1.2)-2) date 2019-08-20 00:13:47*
%MOMM*%
%LPD*%
G04 APERTURE LIST*
%ADD10C,0.110000*%
%ADD11C,0.150000*%
%ADD12R,1.550000X1.050000*%
%ADD13C,0.100000*%
%ADD14C,2.000000*%
%ADD15C,1.400000*%
%ADD16C,2.400000*%
%ADD17C,1.797000*%
%ADD18C,1.924000*%
%ADD19C,5.100400*%
%ADD20R,1.797000X1.797000*%
%ADD21R,2.000000X1.400000*%
%ADD22C,2.600000*%
%ADD23R,1.543000X1.035000*%
%ADD24R,1.350000X1.700000*%
%ADD25R,1.035000X1.543000*%
%ADD26R,1.924000X1.924000*%
%ADD27C,2.100000*%
%ADD28C,2.800000*%
%ADD29C,1.950000*%
%ADD30C,1.950000*%
%ADD31C,1.650000*%
%ADD32C,1.650000*%
%ADD33C,2.300000*%
%ADD34C,4.400000*%
G04 APERTURE END LIST*
D10*
X117219047Y-82906904D02*
X117219047Y-82106904D01*
X117485714Y-82678333D01*
X117752380Y-82106904D01*
X117752380Y-82906904D01*
X118247619Y-82906904D02*
X118171428Y-82868809D01*
X118133333Y-82830714D01*
X118095238Y-82754523D01*
X118095238Y-82525952D01*
X118133333Y-82449761D01*
X118171428Y-82411666D01*
X118247619Y-82373571D01*
X118361904Y-82373571D01*
X118438095Y-82411666D01*
X118476190Y-82449761D01*
X118514285Y-82525952D01*
X118514285Y-82754523D01*
X118476190Y-82830714D01*
X118438095Y-82868809D01*
X118361904Y-82906904D01*
X118247619Y-82906904D01*
X119200000Y-82906904D02*
X119200000Y-82106904D01*
X119200000Y-82868809D02*
X119123809Y-82906904D01*
X118971428Y-82906904D01*
X118895238Y-82868809D01*
X118857142Y-82830714D01*
X118819047Y-82754523D01*
X118819047Y-82525952D01*
X118857142Y-82449761D01*
X118895238Y-82411666D01*
X118971428Y-82373571D01*
X119123809Y-82373571D01*
X119200000Y-82411666D01*
X119580952Y-82906904D02*
X119580952Y-82373571D01*
X119580952Y-82106904D02*
X119542857Y-82145000D01*
X119580952Y-82183095D01*
X119619047Y-82145000D01*
X119580952Y-82106904D01*
X119580952Y-82183095D01*
X119847619Y-82373571D02*
X120152380Y-82373571D01*
X119961904Y-82906904D02*
X119961904Y-82221190D01*
X120000000Y-82145000D01*
X120076190Y-82106904D01*
X120152380Y-82106904D01*
X120419047Y-82906904D02*
X120419047Y-82373571D01*
X120419047Y-82106904D02*
X120380952Y-82145000D01*
X120419047Y-82183095D01*
X120457142Y-82145000D01*
X120419047Y-82106904D01*
X120419047Y-82183095D01*
X121104761Y-82868809D02*
X121028571Y-82906904D01*
X120876190Y-82906904D01*
X120800000Y-82868809D01*
X120761904Y-82792619D01*
X120761904Y-82487857D01*
X120800000Y-82411666D01*
X120876190Y-82373571D01*
X121028571Y-82373571D01*
X121104761Y-82411666D01*
X121142857Y-82487857D01*
X121142857Y-82564047D01*
X120761904Y-82640238D01*
X121828571Y-82906904D02*
X121828571Y-82106904D01*
X121828571Y-82868809D02*
X121752380Y-82906904D01*
X121600000Y-82906904D01*
X121523809Y-82868809D01*
X121485714Y-82830714D01*
X121447619Y-82754523D01*
X121447619Y-82525952D01*
X121485714Y-82449761D01*
X121523809Y-82411666D01*
X121600000Y-82373571D01*
X121752380Y-82373571D01*
X121828571Y-82411666D01*
X122819047Y-82906904D02*
X122819047Y-82106904D01*
X122819047Y-82411666D02*
X122895238Y-82373571D01*
X123047619Y-82373571D01*
X123123809Y-82411666D01*
X123161904Y-82449761D01*
X123200000Y-82525952D01*
X123200000Y-82754523D01*
X123161904Y-82830714D01*
X123123809Y-82868809D01*
X123047619Y-82906904D01*
X122895238Y-82906904D01*
X122819047Y-82868809D01*
X123466666Y-82373571D02*
X123657142Y-82906904D01*
X123847619Y-82373571D02*
X123657142Y-82906904D01*
X123580952Y-83097380D01*
X123542857Y-83135476D01*
X123466666Y-83173571D01*
X118438095Y-84178809D02*
X118514285Y-84216904D01*
X118666666Y-84216904D01*
X118742857Y-84178809D01*
X118780952Y-84102619D01*
X118780952Y-84064523D01*
X118742857Y-83988333D01*
X118666666Y-83950238D01*
X118552380Y-83950238D01*
X118476190Y-83912142D01*
X118438095Y-83835952D01*
X118438095Y-83797857D01*
X118476190Y-83721666D01*
X118552380Y-83683571D01*
X118666666Y-83683571D01*
X118742857Y-83721666D01*
X119238095Y-84216904D02*
X119161904Y-84178809D01*
X119123809Y-84140714D01*
X119085714Y-84064523D01*
X119085714Y-83835952D01*
X119123809Y-83759761D01*
X119161904Y-83721666D01*
X119238095Y-83683571D01*
X119352380Y-83683571D01*
X119428571Y-83721666D01*
X119466666Y-83759761D01*
X119504761Y-83835952D01*
X119504761Y-84064523D01*
X119466666Y-84140714D01*
X119428571Y-84178809D01*
X119352380Y-84216904D01*
X119238095Y-84216904D01*
X119847619Y-84216904D02*
X119847619Y-83683571D01*
X119847619Y-83835952D02*
X119885714Y-83759761D01*
X119923809Y-83721666D01*
X120000000Y-83683571D01*
X120076190Y-83683571D01*
X120304761Y-84178809D02*
X120380952Y-84216904D01*
X120533333Y-84216904D01*
X120609523Y-84178809D01*
X120647619Y-84102619D01*
X120647619Y-84064523D01*
X120609523Y-83988333D01*
X120533333Y-83950238D01*
X120419047Y-83950238D01*
X120342857Y-83912142D01*
X120304761Y-83835952D01*
X120304761Y-83797857D01*
X120342857Y-83721666D01*
X120419047Y-83683571D01*
X120533333Y-83683571D01*
X120609523Y-83721666D01*
X121104761Y-84216904D02*
X121028571Y-84178809D01*
X120990476Y-84102619D01*
X120990476Y-83416904D01*
X121333333Y-83683571D02*
X121523809Y-84216904D01*
X121714285Y-83683571D02*
X121523809Y-84216904D01*
X121447619Y-84407380D01*
X121409523Y-84445476D01*
X121333333Y-84483571D01*
X122361904Y-84216904D02*
X122361904Y-83416904D01*
X122361904Y-84178809D02*
X122285714Y-84216904D01*
X122133333Y-84216904D01*
X122057142Y-84178809D01*
X122019047Y-84140714D01*
X121980952Y-84064523D01*
X121980952Y-83835952D01*
X122019047Y-83759761D01*
X122057142Y-83721666D01*
X122133333Y-83683571D01*
X122285714Y-83683571D01*
X122361904Y-83721666D01*
X123123809Y-83416904D02*
X122742857Y-83416904D01*
X122704761Y-83797857D01*
X122742857Y-83759761D01*
X122819047Y-83721666D01*
X123009523Y-83721666D01*
X123085714Y-83759761D01*
X123123809Y-83797857D01*
X123161904Y-83874047D01*
X123161904Y-84064523D01*
X123123809Y-84140714D01*
X123085714Y-84178809D01*
X123009523Y-84216904D01*
X122819047Y-84216904D01*
X122742857Y-84178809D01*
X122704761Y-84140714D01*
D11*
X180500000Y-138000000D02*
X213500000Y-138000000D01*
X179500000Y-135000000D02*
X179500000Y-137000000D01*
X175500000Y-137000000D02*
X175500000Y-135000000D01*
X123500000Y-138000000D02*
X174500000Y-138000000D01*
X117500000Y-138000000D02*
X84500000Y-138000000D01*
X122500000Y-135000000D02*
X122500000Y-137000000D01*
X118500000Y-135000000D02*
X118500000Y-137000000D01*
X83000000Y-84500000D02*
X83000000Y-117500000D01*
X86000000Y-83500000D02*
X84000000Y-83500000D01*
X84000000Y-79500000D02*
X86000000Y-79500000D01*
X83000000Y-45500000D02*
X83000000Y-78500000D01*
X179500000Y-137000000D02*
G75*
G03X180500000Y-138000000I1000000J0D01*
G01*
X174500000Y-138000000D02*
G75*
G03X175500000Y-137000000I0J1000000D01*
G01*
X122500000Y-137000000D02*
G75*
G03X123500000Y-138000000I1000000J0D01*
G01*
X117500000Y-138000000D02*
G75*
G03X118500000Y-137000000I0J1000000D01*
G01*
X84000000Y-83500000D02*
G75*
G03X83000000Y-84500000I0J-1000000D01*
G01*
X83000000Y-78500000D02*
G75*
G03X84000000Y-79500000I1000000J0D01*
G01*
X180500000Y-44000000D02*
X213500000Y-44000000D01*
X179500000Y-45000000D02*
X179500000Y-47000000D01*
X180500000Y-44000000D02*
G75*
G03X179500000Y-45000000I0J-1000000D01*
G01*
X175500000Y-45000000D02*
X175500000Y-47000000D01*
X175500000Y-45000000D02*
G75*
G03X174500000Y-44000000I-1000000J0D01*
G01*
X123500000Y-44000000D02*
X174500000Y-44000000D01*
X122500000Y-47000000D02*
X122500000Y-45000000D01*
X123500000Y-44000000D02*
G75*
G03X122500000Y-45000000I0J-1000000D01*
G01*
X117500000Y-44000000D02*
X84500000Y-44000000D01*
X118500000Y-45000000D02*
X118500000Y-47000000D01*
X118500000Y-45000000D02*
G75*
G03X117500000Y-44000000I-1000000J0D01*
G01*
X175500000Y-135000000D02*
X179500000Y-135000000D01*
X118500000Y-135000000D02*
X122500000Y-135000000D01*
X175500000Y-47000000D02*
X179500000Y-47000000D01*
X118500000Y-47000000D02*
X122500000Y-47000000D01*
X86000000Y-79500000D02*
X86000000Y-83500000D01*
X204250000Y-126250000D02*
X204250000Y-121750000D01*
X207750000Y-126250000D02*
X204250000Y-126250000D01*
X207750000Y-121750000D02*
X207750000Y-126250000D01*
X204250000Y-121750000D02*
X207750000Y-121750000D01*
X185250000Y-126250000D02*
X185250000Y-121750000D01*
X188750000Y-126250000D02*
X185250000Y-126250000D01*
X188750000Y-121750000D02*
X188750000Y-126250000D01*
X185250000Y-121750000D02*
X188750000Y-121750000D01*
X166250000Y-126250000D02*
X166250000Y-121750000D01*
X169750000Y-126250000D02*
X166250000Y-126250000D01*
X169750000Y-121750000D02*
X169750000Y-126250000D01*
X166250000Y-121750000D02*
X169750000Y-121750000D01*
X147250000Y-126250000D02*
X147250000Y-121750000D01*
X150750000Y-126250000D02*
X147250000Y-126250000D01*
X150750000Y-121750000D02*
X150750000Y-126250000D01*
X147250000Y-121750000D02*
X150750000Y-121750000D01*
X128250000Y-126250000D02*
X128250000Y-121750000D01*
X131750000Y-126250000D02*
X128250000Y-126250000D01*
X131750000Y-121750000D02*
X131750000Y-126250000D01*
X128250000Y-121750000D02*
X131750000Y-121750000D01*
X109250000Y-126250000D02*
X109250000Y-121750000D01*
X112750000Y-126250000D02*
X109250000Y-126250000D01*
X112750000Y-121750000D02*
X112750000Y-126250000D01*
X109250000Y-121750000D02*
X112750000Y-121750000D01*
X90250000Y-126250000D02*
X90250000Y-121750000D01*
X93750000Y-126250000D02*
X90250000Y-126250000D01*
X93750000Y-121750000D02*
X93750000Y-126250000D01*
X90250000Y-121750000D02*
X93750000Y-121750000D01*
X90250000Y-107250000D02*
X90250000Y-102750000D01*
X93750000Y-107250000D02*
X90250000Y-107250000D01*
X93750000Y-102750000D02*
X93750000Y-107250000D01*
X90250000Y-102750000D02*
X93750000Y-102750000D01*
X109250000Y-107250000D02*
X109250000Y-102750000D01*
X112750000Y-107250000D02*
X109250000Y-107250000D01*
X112750000Y-102750000D02*
X112750000Y-107250000D01*
X109250000Y-102750000D02*
X112750000Y-102750000D01*
X128250000Y-107250000D02*
X128250000Y-102750000D01*
X131750000Y-107250000D02*
X128250000Y-107250000D01*
X131750000Y-102750000D02*
X131750000Y-107250000D01*
X128250000Y-102750000D02*
X131750000Y-102750000D01*
X147250000Y-107250000D02*
X147250000Y-102750000D01*
X150750000Y-107250000D02*
X147250000Y-107250000D01*
X150750000Y-102750000D02*
X150750000Y-107250000D01*
X147250000Y-102750000D02*
X150750000Y-102750000D01*
X166250000Y-107250000D02*
X166250000Y-102750000D01*
X169750000Y-107250000D02*
X166250000Y-107250000D01*
X169750000Y-102750000D02*
X169750000Y-107250000D01*
X166250000Y-102750000D02*
X169750000Y-102750000D01*
X185250000Y-107250000D02*
X185250000Y-102750000D01*
X188750000Y-107250000D02*
X185250000Y-107250000D01*
X188750000Y-102750000D02*
X188750000Y-107250000D01*
X185250000Y-102750000D02*
X188750000Y-102750000D01*
X204250000Y-107250000D02*
X204250000Y-102750000D01*
X207750000Y-107250000D02*
X204250000Y-107250000D01*
X207750000Y-102750000D02*
X207750000Y-107250000D01*
X204250000Y-102750000D02*
X207750000Y-102750000D01*
X185250000Y-88250000D02*
X185250000Y-83750000D01*
X188750000Y-88250000D02*
X185250000Y-88250000D01*
X188750000Y-83750000D02*
X188750000Y-88250000D01*
X185250000Y-83750000D02*
X188750000Y-83750000D01*
X166250000Y-88250000D02*
X166250000Y-83750000D01*
X169750000Y-88250000D02*
X166250000Y-88250000D01*
X169750000Y-83750000D02*
X169750000Y-88250000D01*
X166250000Y-83750000D02*
X169750000Y-83750000D01*
X147250000Y-88250000D02*
X147250000Y-83750000D01*
X150750000Y-88250000D02*
X147250000Y-88250000D01*
X150750000Y-83750000D02*
X150750000Y-88250000D01*
X147250000Y-83750000D02*
X150750000Y-83750000D01*
X128250000Y-88250000D02*
X128250000Y-83750000D01*
X131750000Y-88250000D02*
X128250000Y-88250000D01*
X131750000Y-83750000D02*
X131750000Y-88250000D01*
X128250000Y-83750000D02*
X131750000Y-83750000D01*
X109250000Y-88250000D02*
X109250000Y-83750000D01*
X112750000Y-88250000D02*
X109250000Y-88250000D01*
X112750000Y-83750000D02*
X112750000Y-88250000D01*
X109250000Y-83750000D02*
X112750000Y-83750000D01*
X90250000Y-88250000D02*
X90250000Y-83750000D01*
X93750000Y-88250000D02*
X90250000Y-88250000D01*
X93750000Y-83750000D02*
X93750000Y-88250000D01*
X90250000Y-83750000D02*
X93750000Y-83750000D01*
X90250000Y-69250000D02*
X90250000Y-64750000D01*
X93750000Y-69250000D02*
X90250000Y-69250000D01*
X93750000Y-64750000D02*
X93750000Y-69250000D01*
X90250000Y-64750000D02*
X93750000Y-64750000D01*
X109250000Y-69250000D02*
X109250000Y-64750000D01*
X112750000Y-69250000D02*
X109250000Y-69250000D01*
X112750000Y-64750000D02*
X112750000Y-69250000D01*
X109250000Y-64750000D02*
X112750000Y-64750000D01*
X128250000Y-69250000D02*
X128250000Y-64750000D01*
X131750000Y-69250000D02*
X128250000Y-69250000D01*
X131750000Y-64750000D02*
X131750000Y-69250000D01*
X128250000Y-64750000D02*
X131750000Y-64750000D01*
X147250000Y-69250000D02*
X147250000Y-64750000D01*
X150750000Y-69250000D02*
X147250000Y-69250000D01*
X150750000Y-64750000D02*
X150750000Y-69250000D01*
X147250000Y-64750000D02*
X150750000Y-64750000D01*
X166250000Y-69250000D02*
X166250000Y-64750000D01*
X169750000Y-69250000D02*
X166250000Y-69250000D01*
X169750000Y-64750000D02*
X169750000Y-69250000D01*
X166250000Y-64750000D02*
X169750000Y-64750000D01*
X185250000Y-69250000D02*
X185250000Y-64750000D01*
X188750000Y-69250000D02*
X185250000Y-69250000D01*
X188750000Y-64750000D02*
X188750000Y-69250000D01*
X185250000Y-64750000D02*
X188750000Y-64750000D01*
X185250000Y-50250000D02*
X185250000Y-45750000D01*
X188750000Y-50250000D02*
X185250000Y-50250000D01*
X188750000Y-45750000D02*
X188750000Y-50250000D01*
X185250000Y-45750000D02*
X188750000Y-45750000D01*
X166250000Y-50250000D02*
X166250000Y-45750000D01*
X169750000Y-50250000D02*
X166250000Y-50250000D01*
X169750000Y-45750000D02*
X169750000Y-50250000D01*
X166250000Y-45750000D02*
X169750000Y-45750000D01*
X147250000Y-50250000D02*
X147250000Y-45750000D01*
X150750000Y-50250000D02*
X147250000Y-50250000D01*
X150750000Y-45750000D02*
X150750000Y-50250000D01*
X147250000Y-45750000D02*
X150750000Y-45750000D01*
X128250000Y-50250000D02*
X128250000Y-45750000D01*
X131750000Y-50250000D02*
X128250000Y-50250000D01*
X131750000Y-45750000D02*
X131750000Y-50250000D01*
X128250000Y-45750000D02*
X131750000Y-45750000D01*
X109250000Y-50250000D02*
X109250000Y-45750000D01*
X112750000Y-50250000D02*
X109250000Y-50250000D01*
X112750000Y-45750000D02*
X112750000Y-50250000D01*
X109250000Y-45750000D02*
X112750000Y-45750000D01*
X90250000Y-50250000D02*
X90250000Y-45750000D01*
X93750000Y-50250000D02*
X90250000Y-50250000D01*
X93750000Y-45750000D02*
X93750000Y-50250000D01*
X90250000Y-45750000D02*
X93750000Y-45750000D01*
D10*
X102121428Y-83133333D02*
X102502380Y-83133333D01*
X102045238Y-83361904D02*
X102311904Y-82561904D01*
X102578571Y-83361904D01*
X102845238Y-83361904D02*
X102845238Y-82828571D01*
X102845238Y-82980952D02*
X102883333Y-82904761D01*
X102921428Y-82866666D01*
X102997619Y-82828571D01*
X103073809Y-82828571D01*
X103226190Y-82828571D02*
X103530952Y-82828571D01*
X103340476Y-82561904D02*
X103340476Y-83247619D01*
X103378571Y-83323809D01*
X103454761Y-83361904D01*
X103530952Y-83361904D01*
X103721428Y-82828571D02*
X103873809Y-83361904D01*
X104026190Y-82980952D01*
X104178571Y-83361904D01*
X104330952Y-82828571D01*
X104750000Y-83361904D02*
X104673809Y-83323809D01*
X104635714Y-83285714D01*
X104597619Y-83209523D01*
X104597619Y-82980952D01*
X104635714Y-82904761D01*
X104673809Y-82866666D01*
X104750000Y-82828571D01*
X104864285Y-82828571D01*
X104940476Y-82866666D01*
X104978571Y-82904761D01*
X105016666Y-82980952D01*
X105016666Y-83209523D01*
X104978571Y-83285714D01*
X104940476Y-83323809D01*
X104864285Y-83361904D01*
X104750000Y-83361904D01*
X105359523Y-83361904D02*
X105359523Y-82828571D01*
X105359523Y-82980952D02*
X105397619Y-82904761D01*
X105435714Y-82866666D01*
X105511904Y-82828571D01*
X105588095Y-82828571D01*
X105854761Y-83361904D02*
X105854761Y-82561904D01*
X105930952Y-83057142D02*
X106159523Y-83361904D01*
X106159523Y-82828571D02*
X105854761Y-83133333D01*
X107111904Y-83361904D02*
X107111904Y-82561904D01*
X107111904Y-82866666D02*
X107188095Y-82828571D01*
X107340476Y-82828571D01*
X107416666Y-82866666D01*
X107454761Y-82904761D01*
X107492857Y-82980952D01*
X107492857Y-83209523D01*
X107454761Y-83285714D01*
X107416666Y-83323809D01*
X107340476Y-83361904D01*
X107188095Y-83361904D01*
X107111904Y-83323809D01*
X107759523Y-82828571D02*
X107950000Y-83361904D01*
X108140476Y-82828571D02*
X107950000Y-83361904D01*
X107873809Y-83552380D01*
X107835714Y-83590476D01*
X107759523Y-83628571D01*
X109550000Y-82980952D02*
X109511904Y-82942857D01*
X109435714Y-82904761D01*
X109359523Y-82904761D01*
X109283333Y-82942857D01*
X109245238Y-82980952D01*
X109207142Y-83057142D01*
X109207142Y-83133333D01*
X109245238Y-83209523D01*
X109283333Y-83247619D01*
X109359523Y-83285714D01*
X109435714Y-83285714D01*
X109511904Y-83247619D01*
X109550000Y-83209523D01*
X109550000Y-82904761D02*
X109550000Y-83209523D01*
X109588095Y-83247619D01*
X109626190Y-83247619D01*
X109702380Y-83209523D01*
X109740476Y-83133333D01*
X109740476Y-82942857D01*
X109664285Y-82828571D01*
X109550000Y-82752380D01*
X109397619Y-82714285D01*
X109245238Y-82752380D01*
X109130952Y-82828571D01*
X109054761Y-82942857D01*
X109016666Y-83095238D01*
X109054761Y-83247619D01*
X109130952Y-83361904D01*
X109245238Y-83438095D01*
X109397619Y-83476190D01*
X109550000Y-83438095D01*
X109664285Y-83361904D01*
X110007142Y-82828571D02*
X110197619Y-83361904D01*
X110388095Y-82828571D01*
X110807142Y-83361904D02*
X110730952Y-83323809D01*
X110692857Y-83285714D01*
X110654761Y-83209523D01*
X110654761Y-82980952D01*
X110692857Y-82904761D01*
X110730952Y-82866666D01*
X110807142Y-82828571D01*
X110921428Y-82828571D01*
X110997619Y-82866666D01*
X111035714Y-82904761D01*
X111073809Y-82980952D01*
X111073809Y-83209523D01*
X111035714Y-83285714D01*
X110997619Y-83323809D01*
X110921428Y-83361904D01*
X110807142Y-83361904D01*
X111416666Y-83361904D02*
X111416666Y-82828571D01*
X111416666Y-82561904D02*
X111378571Y-82600000D01*
X111416666Y-82638095D01*
X111454761Y-82600000D01*
X111416666Y-82561904D01*
X111416666Y-82638095D01*
X112140476Y-83361904D02*
X112140476Y-82561904D01*
X112140476Y-83323809D02*
X112064285Y-83361904D01*
X111911904Y-83361904D01*
X111835714Y-83323809D01*
X111797619Y-83285714D01*
X111759523Y-83209523D01*
X111759523Y-82980952D01*
X111797619Y-82904761D01*
X111835714Y-82866666D01*
X111911904Y-82828571D01*
X112064285Y-82828571D01*
X112140476Y-82866666D01*
X112330952Y-83438095D02*
X112940476Y-83438095D01*
X113130952Y-83361904D02*
X113130952Y-82561904D01*
X113207142Y-83057142D02*
X113435714Y-83361904D01*
X113435714Y-82828571D02*
X113130952Y-83133333D01*
X114083333Y-83323809D02*
X114007142Y-83361904D01*
X113854761Y-83361904D01*
X113778571Y-83323809D01*
X113740476Y-83247619D01*
X113740476Y-82942857D01*
X113778571Y-82866666D01*
X113854761Y-82828571D01*
X114007142Y-82828571D01*
X114083333Y-82866666D01*
X114121428Y-82942857D01*
X114121428Y-83019047D01*
X113740476Y-83095238D01*
X114388095Y-82828571D02*
X114578571Y-83361904D01*
X114769047Y-82828571D02*
X114578571Y-83361904D01*
X114502380Y-83552380D01*
X114464285Y-83590476D01*
X114388095Y-83628571D01*
X115035714Y-83323809D02*
X115111904Y-83361904D01*
X115264285Y-83361904D01*
X115340476Y-83323809D01*
X115378571Y-83247619D01*
X115378571Y-83209523D01*
X115340476Y-83133333D01*
X115264285Y-83095238D01*
X115150000Y-83095238D01*
X115073809Y-83057142D01*
X115035714Y-82980952D01*
X115035714Y-82942857D01*
X115073809Y-82866666D01*
X115150000Y-82828571D01*
X115264285Y-82828571D01*
X115340476Y-82866666D01*
X102135714Y-82161904D02*
X102135714Y-81361904D01*
X102440476Y-81361904D01*
X102516666Y-81400000D01*
X102554761Y-81438095D01*
X102592857Y-81514285D01*
X102592857Y-81628571D01*
X102554761Y-81704761D01*
X102516666Y-81742857D01*
X102440476Y-81780952D01*
X102135714Y-81780952D01*
X103392857Y-82085714D02*
X103354761Y-82123809D01*
X103240476Y-82161904D01*
X103164285Y-82161904D01*
X103050000Y-82123809D01*
X102973809Y-82047619D01*
X102935714Y-81971428D01*
X102897619Y-81819047D01*
X102897619Y-81704761D01*
X102935714Y-81552380D01*
X102973809Y-81476190D01*
X103050000Y-81400000D01*
X103164285Y-81361904D01*
X103240476Y-81361904D01*
X103354761Y-81400000D01*
X103392857Y-81438095D01*
X104002380Y-81742857D02*
X104116666Y-81780952D01*
X104154761Y-81819047D01*
X104192857Y-81895238D01*
X104192857Y-82009523D01*
X104154761Y-82085714D01*
X104116666Y-82123809D01*
X104040476Y-82161904D01*
X103735714Y-82161904D01*
X103735714Y-81361904D01*
X104002380Y-81361904D01*
X104078571Y-81400000D01*
X104116666Y-81438095D01*
X104154761Y-81514285D01*
X104154761Y-81590476D01*
X104116666Y-81666666D01*
X104078571Y-81704761D01*
X104002380Y-81742857D01*
X103735714Y-81742857D01*
X105145238Y-82161904D02*
X105145238Y-81361904D01*
X105335714Y-81361904D01*
X105450000Y-81400000D01*
X105526190Y-81476190D01*
X105564285Y-81552380D01*
X105602380Y-81704761D01*
X105602380Y-81819047D01*
X105564285Y-81971428D01*
X105526190Y-82047619D01*
X105450000Y-82123809D01*
X105335714Y-82161904D01*
X105145238Y-82161904D01*
X106250000Y-82123809D02*
X106173809Y-82161904D01*
X106021428Y-82161904D01*
X105945238Y-82123809D01*
X105907142Y-82047619D01*
X105907142Y-81742857D01*
X105945238Y-81666666D01*
X106021428Y-81628571D01*
X106173809Y-81628571D01*
X106250000Y-81666666D01*
X106288095Y-81742857D01*
X106288095Y-81819047D01*
X105907142Y-81895238D01*
X106592857Y-82123809D02*
X106669047Y-82161904D01*
X106821428Y-82161904D01*
X106897619Y-82123809D01*
X106935714Y-82047619D01*
X106935714Y-82009523D01*
X106897619Y-81933333D01*
X106821428Y-81895238D01*
X106707142Y-81895238D01*
X106630952Y-81857142D01*
X106592857Y-81780952D01*
X106592857Y-81742857D01*
X106630952Y-81666666D01*
X106707142Y-81628571D01*
X106821428Y-81628571D01*
X106897619Y-81666666D01*
X107278571Y-82161904D02*
X107278571Y-81628571D01*
X107278571Y-81361904D02*
X107240476Y-81400000D01*
X107278571Y-81438095D01*
X107316666Y-81400000D01*
X107278571Y-81361904D01*
X107278571Y-81438095D01*
X108002380Y-81628571D02*
X108002380Y-82276190D01*
X107964285Y-82352380D01*
X107926190Y-82390476D01*
X107850000Y-82428571D01*
X107735714Y-82428571D01*
X107659523Y-82390476D01*
X108002380Y-82123809D02*
X107926190Y-82161904D01*
X107773809Y-82161904D01*
X107697619Y-82123809D01*
X107659523Y-82085714D01*
X107621428Y-82009523D01*
X107621428Y-81780952D01*
X107659523Y-81704761D01*
X107697619Y-81666666D01*
X107773809Y-81628571D01*
X107926190Y-81628571D01*
X108002380Y-81666666D01*
X108383333Y-81628571D02*
X108383333Y-82161904D01*
X108383333Y-81704761D02*
X108421428Y-81666666D01*
X108497619Y-81628571D01*
X108611904Y-81628571D01*
X108688095Y-81666666D01*
X108726190Y-81742857D01*
X108726190Y-82161904D01*
X109716666Y-82161904D02*
X109716666Y-81361904D01*
X109716666Y-81666666D02*
X109792857Y-81628571D01*
X109945238Y-81628571D01*
X110021428Y-81666666D01*
X110059523Y-81704761D01*
X110097619Y-81780952D01*
X110097619Y-82009523D01*
X110059523Y-82085714D01*
X110021428Y-82123809D01*
X109945238Y-82161904D01*
X109792857Y-82161904D01*
X109716666Y-82123809D01*
X110364285Y-81628571D02*
X110554761Y-82161904D01*
X110745238Y-81628571D02*
X110554761Y-82161904D01*
X110478571Y-82352380D01*
X110440476Y-82390476D01*
X110364285Y-82428571D01*
X112154761Y-81780952D02*
X112116666Y-81742857D01*
X112040476Y-81704761D01*
X111964285Y-81704761D01*
X111888095Y-81742857D01*
X111850000Y-81780952D01*
X111811904Y-81857142D01*
X111811904Y-81933333D01*
X111850000Y-82009523D01*
X111888095Y-82047619D01*
X111964285Y-82085714D01*
X112040476Y-82085714D01*
X112116666Y-82047619D01*
X112154761Y-82009523D01*
X112154761Y-81704761D02*
X112154761Y-82009523D01*
X112192857Y-82047619D01*
X112230952Y-82047619D01*
X112307142Y-82009523D01*
X112345238Y-81933333D01*
X112345238Y-81742857D01*
X112269047Y-81628571D01*
X112154761Y-81552380D01*
X112002380Y-81514285D01*
X111850000Y-81552380D01*
X111735714Y-81628571D01*
X111659523Y-81742857D01*
X111621428Y-81895238D01*
X111659523Y-82047619D01*
X111735714Y-82161904D01*
X111850000Y-82238095D01*
X112002380Y-82276190D01*
X112154761Y-82238095D01*
X112269047Y-82161904D01*
X112688095Y-81628571D02*
X112688095Y-82428571D01*
X112688095Y-81666666D02*
X112764285Y-81628571D01*
X112916666Y-81628571D01*
X112992857Y-81666666D01*
X113030952Y-81704761D01*
X113069047Y-81780952D01*
X113069047Y-82009523D01*
X113030952Y-82085714D01*
X112992857Y-82123809D01*
X112916666Y-82161904D01*
X112764285Y-82161904D01*
X112688095Y-82123809D01*
X113526190Y-82161904D02*
X113450000Y-82123809D01*
X113411904Y-82047619D01*
X113411904Y-81361904D01*
X114173809Y-81628571D02*
X114173809Y-82161904D01*
X113830952Y-81628571D02*
X113830952Y-82047619D01*
X113869047Y-82123809D01*
X113945238Y-82161904D01*
X114059523Y-82161904D01*
X114135714Y-82123809D01*
X114173809Y-82085714D01*
X114554761Y-82161904D02*
X114554761Y-81628571D01*
X114554761Y-81361904D02*
X114516666Y-81400000D01*
X114554761Y-81438095D01*
X114592857Y-81400000D01*
X114554761Y-81361904D01*
X114554761Y-81438095D01*
X114897619Y-82123809D02*
X114973809Y-82161904D01*
X115126190Y-82161904D01*
X115202380Y-82123809D01*
X115240476Y-82047619D01*
X115240476Y-82009523D01*
X115202380Y-81933333D01*
X115126190Y-81895238D01*
X115011904Y-81895238D01*
X114935714Y-81857142D01*
X114897619Y-81780952D01*
X114897619Y-81742857D01*
X114935714Y-81666666D01*
X115011904Y-81628571D01*
X115126190Y-81628571D01*
X115202380Y-81666666D01*
X115621428Y-82161904D02*
X115773809Y-82161904D01*
X115850000Y-82123809D01*
X115888095Y-82085714D01*
X115964285Y-81971428D01*
X116002380Y-81819047D01*
X116002380Y-81514285D01*
X115964285Y-81438095D01*
X115926190Y-81400000D01*
X115850000Y-81361904D01*
X115697619Y-81361904D01*
X115621428Y-81400000D01*
X115583333Y-81438095D01*
X115545238Y-81514285D01*
X115545238Y-81704761D01*
X115583333Y-81780952D01*
X115621428Y-81819047D01*
X115697619Y-81857142D01*
X115850000Y-81857142D01*
X115926190Y-81819047D01*
X115964285Y-81780952D01*
X116002380Y-81704761D01*
X102161904Y-80911904D02*
X102161904Y-80111904D01*
X102161904Y-80492857D02*
X102619047Y-80492857D01*
X102619047Y-80911904D02*
X102619047Y-80111904D01*
X103304761Y-80873809D02*
X103228571Y-80911904D01*
X103076190Y-80911904D01*
X103000000Y-80873809D01*
X102961904Y-80797619D01*
X102961904Y-80492857D01*
X103000000Y-80416666D01*
X103076190Y-80378571D01*
X103228571Y-80378571D01*
X103304761Y-80416666D01*
X103342857Y-80492857D01*
X103342857Y-80569047D01*
X102961904Y-80645238D01*
X103800000Y-80911904D02*
X103723809Y-80873809D01*
X103685714Y-80797619D01*
X103685714Y-80111904D01*
X104104761Y-80911904D02*
X104104761Y-80378571D01*
X104104761Y-80111904D02*
X104066666Y-80150000D01*
X104104761Y-80188095D01*
X104142857Y-80150000D01*
X104104761Y-80111904D01*
X104104761Y-80188095D01*
X104409523Y-80911904D02*
X104828571Y-80378571D01*
X104409523Y-80378571D02*
X104828571Y-80911904D01*
X105704761Y-80111904D02*
X105704761Y-80264285D01*
X106009523Y-80111904D02*
X106009523Y-80264285D01*
X106619047Y-80492857D02*
X106733333Y-80530952D01*
X106771428Y-80569047D01*
X106809523Y-80645238D01*
X106809523Y-80759523D01*
X106771428Y-80835714D01*
X106733333Y-80873809D01*
X106657142Y-80911904D01*
X106352380Y-80911904D01*
X106352380Y-80111904D01*
X106619047Y-80111904D01*
X106695238Y-80150000D01*
X106733333Y-80188095D01*
X106771428Y-80264285D01*
X106771428Y-80340476D01*
X106733333Y-80416666D01*
X106695238Y-80454761D01*
X106619047Y-80492857D01*
X106352380Y-80492857D01*
X107457142Y-80873809D02*
X107380952Y-80911904D01*
X107228571Y-80911904D01*
X107152380Y-80873809D01*
X107114285Y-80797619D01*
X107114285Y-80492857D01*
X107152380Y-80416666D01*
X107228571Y-80378571D01*
X107380952Y-80378571D01*
X107457142Y-80416666D01*
X107495238Y-80492857D01*
X107495238Y-80569047D01*
X107114285Y-80645238D01*
X107723809Y-80378571D02*
X108028571Y-80378571D01*
X107838095Y-80111904D02*
X107838095Y-80797619D01*
X107876190Y-80873809D01*
X107952380Y-80911904D01*
X108028571Y-80911904D01*
X108638095Y-80911904D02*
X108638095Y-80492857D01*
X108600000Y-80416666D01*
X108523809Y-80378571D01*
X108371428Y-80378571D01*
X108295238Y-80416666D01*
X108638095Y-80873809D02*
X108561904Y-80911904D01*
X108371428Y-80911904D01*
X108295238Y-80873809D01*
X108257142Y-80797619D01*
X108257142Y-80721428D01*
X108295238Y-80645238D01*
X108371428Y-80607142D01*
X108561904Y-80607142D01*
X108638095Y-80569047D01*
X108980952Y-80111904D02*
X108980952Y-80264285D01*
X109285714Y-80111904D02*
X109285714Y-80264285D01*
X110238095Y-80911904D02*
X110238095Y-80111904D01*
X110695238Y-80911904D02*
X110352380Y-80454761D01*
X110695238Y-80111904D02*
X110238095Y-80569047D01*
X111342857Y-80873809D02*
X111266666Y-80911904D01*
X111114285Y-80911904D01*
X111038095Y-80873809D01*
X111000000Y-80797619D01*
X111000000Y-80492857D01*
X111038095Y-80416666D01*
X111114285Y-80378571D01*
X111266666Y-80378571D01*
X111342857Y-80416666D01*
X111380952Y-80492857D01*
X111380952Y-80569047D01*
X111000000Y-80645238D01*
X111647619Y-80378571D02*
X111838095Y-80911904D01*
X112028571Y-80378571D02*
X111838095Y-80911904D01*
X111761904Y-81102380D01*
X111723809Y-81140476D01*
X111647619Y-81178571D01*
X112333333Y-80911904D02*
X112333333Y-80111904D01*
X112333333Y-80416666D02*
X112409523Y-80378571D01*
X112561904Y-80378571D01*
X112638095Y-80416666D01*
X112676190Y-80454761D01*
X112714285Y-80530952D01*
X112714285Y-80759523D01*
X112676190Y-80835714D01*
X112638095Y-80873809D01*
X112561904Y-80911904D01*
X112409523Y-80911904D01*
X112333333Y-80873809D01*
X113171428Y-80911904D02*
X113095238Y-80873809D01*
X113057142Y-80835714D01*
X113019047Y-80759523D01*
X113019047Y-80530952D01*
X113057142Y-80454761D01*
X113095238Y-80416666D01*
X113171428Y-80378571D01*
X113285714Y-80378571D01*
X113361904Y-80416666D01*
X113400000Y-80454761D01*
X113438095Y-80530952D01*
X113438095Y-80759523D01*
X113400000Y-80835714D01*
X113361904Y-80873809D01*
X113285714Y-80911904D01*
X113171428Y-80911904D01*
X114123809Y-80911904D02*
X114123809Y-80492857D01*
X114085714Y-80416666D01*
X114009523Y-80378571D01*
X113857142Y-80378571D01*
X113780952Y-80416666D01*
X114123809Y-80873809D02*
X114047619Y-80911904D01*
X113857142Y-80911904D01*
X113780952Y-80873809D01*
X113742857Y-80797619D01*
X113742857Y-80721428D01*
X113780952Y-80645238D01*
X113857142Y-80607142D01*
X114047619Y-80607142D01*
X114123809Y-80569047D01*
X114504761Y-80911904D02*
X114504761Y-80378571D01*
X114504761Y-80530952D02*
X114542857Y-80454761D01*
X114580952Y-80416666D01*
X114657142Y-80378571D01*
X114733333Y-80378571D01*
X115342857Y-80911904D02*
X115342857Y-80111904D01*
X115342857Y-80873809D02*
X115266666Y-80911904D01*
X115114285Y-80911904D01*
X115038095Y-80873809D01*
X115000000Y-80835714D01*
X114961904Y-80759523D01*
X114961904Y-80530952D01*
X115000000Y-80454761D01*
X115038095Y-80416666D01*
X115114285Y-80378571D01*
X115266666Y-80378571D01*
X115342857Y-80416666D01*
X116333333Y-80911904D02*
X116333333Y-80111904D01*
X116638095Y-80111904D01*
X116714285Y-80150000D01*
X116752380Y-80188095D01*
X116790476Y-80264285D01*
X116790476Y-80378571D01*
X116752380Y-80454761D01*
X116714285Y-80492857D01*
X116638095Y-80530952D01*
X116333333Y-80530952D01*
X117590476Y-80835714D02*
X117552380Y-80873809D01*
X117438095Y-80911904D01*
X117361904Y-80911904D01*
X117247619Y-80873809D01*
X117171428Y-80797619D01*
X117133333Y-80721428D01*
X117095238Y-80569047D01*
X117095238Y-80454761D01*
X117133333Y-80302380D01*
X117171428Y-80226190D01*
X117247619Y-80150000D01*
X117361904Y-80111904D01*
X117438095Y-80111904D01*
X117552380Y-80150000D01*
X117590476Y-80188095D01*
X118200000Y-80492857D02*
X118314285Y-80530952D01*
X118352380Y-80569047D01*
X118390476Y-80645238D01*
X118390476Y-80759523D01*
X118352380Y-80835714D01*
X118314285Y-80873809D01*
X118238095Y-80911904D01*
X117933333Y-80911904D01*
X117933333Y-80111904D01*
X118200000Y-80111904D01*
X118276190Y-80150000D01*
X118314285Y-80188095D01*
X118352380Y-80264285D01*
X118352380Y-80340476D01*
X118314285Y-80416666D01*
X118276190Y-80454761D01*
X118200000Y-80492857D01*
X117933333Y-80492857D01*
X119266666Y-80378571D02*
X119457142Y-80911904D01*
X119647619Y-80378571D01*
X120371428Y-80911904D02*
X119914285Y-80911904D01*
X120142857Y-80911904D02*
X120142857Y-80111904D01*
X120066666Y-80226190D01*
X119990476Y-80302380D01*
X119914285Y-80340476D01*
X120714285Y-80835714D02*
X120752380Y-80873809D01*
X120714285Y-80911904D01*
X120676190Y-80873809D01*
X120714285Y-80835714D01*
X120714285Y-80911904D01*
X121247619Y-80111904D02*
X121323809Y-80111904D01*
X121400000Y-80150000D01*
X121438095Y-80188095D01*
X121476190Y-80264285D01*
X121514285Y-80416666D01*
X121514285Y-80607142D01*
X121476190Y-80759523D01*
X121438095Y-80835714D01*
X121400000Y-80873809D01*
X121323809Y-80911904D01*
X121247619Y-80911904D01*
X121171428Y-80873809D01*
X121133333Y-80835714D01*
X121095238Y-80759523D01*
X121057142Y-80607142D01*
X121057142Y-80416666D01*
X121095238Y-80264285D01*
X121133333Y-80188095D01*
X121171428Y-80150000D01*
X121247619Y-80111904D01*
X122276190Y-80911904D02*
X121819047Y-80911904D01*
X122047619Y-80911904D02*
X122047619Y-80111904D01*
X121971428Y-80226190D01*
X121895238Y-80302380D01*
X121819047Y-80340476D01*
D11*
X204500000Y-120000000D02*
X188500000Y-120000000D01*
X188500000Y-119000000D02*
X204500000Y-119000000D01*
X185500000Y-120000000D02*
X169500000Y-120000000D01*
X169500000Y-119000000D02*
X185500000Y-119000000D01*
X166500000Y-120000000D02*
X150500000Y-120000000D01*
X150500000Y-119000000D02*
X166500000Y-119000000D01*
X147500000Y-120000000D02*
X131500000Y-120000000D01*
X131500000Y-119000000D02*
X147500000Y-119000000D01*
X128500000Y-120000000D02*
X112500000Y-120000000D01*
X112500000Y-119000000D02*
X128500000Y-119000000D01*
X93500000Y-120000000D02*
X109500000Y-120000000D01*
X93500000Y-119000000D02*
X109500000Y-119000000D01*
X90500000Y-120000000D02*
X84500000Y-120000000D01*
X84500000Y-119000000D02*
X90500000Y-119000000D01*
X215000000Y-117500000D02*
X215000000Y-45500000D01*
X207500000Y-119000000D02*
X213500000Y-119000000D01*
X213500000Y-120000000D02*
X207500000Y-120000000D01*
X215000000Y-136500000D02*
X215000000Y-121500000D01*
X83000000Y-121500000D02*
X83000000Y-136500000D01*
X215000000Y-45500000D02*
G75*
G03X213500000Y-44000000I-1500000J0D01*
G01*
X84500000Y-44000000D02*
G75*
G03X83000000Y-45500000I0J-1500000D01*
G01*
X207000000Y-119500000D02*
G75*
G03X207500000Y-120000000I500000J0D01*
G01*
X207500000Y-119000000D02*
G75*
G03X207000000Y-119500000I0J-500000D01*
G01*
X204500000Y-120000000D02*
G75*
G03X205000000Y-119500000I0J500000D01*
G01*
X205000000Y-119500000D02*
G75*
G03X204500000Y-119000000I-500000J0D01*
G01*
X188000000Y-119500000D02*
G75*
G03X188500000Y-120000000I500000J0D01*
G01*
X188500000Y-119000000D02*
G75*
G03X188000000Y-119500000I0J-500000D01*
G01*
X185500000Y-120000000D02*
G75*
G03X186000000Y-119500000I0J500000D01*
G01*
X186000000Y-119500000D02*
G75*
G03X185500000Y-119000000I-500000J0D01*
G01*
X169000000Y-119500000D02*
G75*
G03X169500000Y-120000000I500000J0D01*
G01*
X169500000Y-119000000D02*
G75*
G03X169000000Y-119500000I0J-500000D01*
G01*
X166500000Y-120000000D02*
G75*
G03X167000000Y-119500000I0J500000D01*
G01*
X167000000Y-119500000D02*
G75*
G03X166500000Y-119000000I-500000J0D01*
G01*
X150000000Y-119500000D02*
G75*
G03X150500000Y-120000000I500000J0D01*
G01*
X150500000Y-119000000D02*
G75*
G03X150000000Y-119500000I0J-500000D01*
G01*
X147500000Y-120000000D02*
G75*
G03X148000000Y-119500000I0J500000D01*
G01*
X148000000Y-119500000D02*
G75*
G03X147500000Y-119000000I-500000J0D01*
G01*
X131000000Y-119500000D02*
G75*
G03X131500000Y-120000000I500000J0D01*
G01*
X131500000Y-119000000D02*
G75*
G03X131000000Y-119500000I0J-500000D01*
G01*
X128500000Y-120000000D02*
G75*
G03X129000000Y-119500000I0J500000D01*
G01*
X129000000Y-119500000D02*
G75*
G03X128500000Y-119000000I-500000J0D01*
G01*
X112000000Y-119500000D02*
G75*
G03X112500000Y-120000000I500000J0D01*
G01*
X112500000Y-119000000D02*
G75*
G03X112000000Y-119500000I0J-500000D01*
G01*
X109500000Y-120000000D02*
G75*
G03X110000000Y-119500000I0J500000D01*
G01*
X110000000Y-119500000D02*
G75*
G03X109500000Y-119000000I-500000J0D01*
G01*
X93000000Y-119500000D02*
G75*
G03X93500000Y-120000000I500000J0D01*
G01*
X93500000Y-119000000D02*
G75*
G03X93000000Y-119500000I0J-500000D01*
G01*
X90500000Y-120000000D02*
G75*
G03X91000000Y-119500000I0J500000D01*
G01*
X91000000Y-119500000D02*
G75*
G03X90500000Y-119000000I-500000J0D01*
G01*
X83000000Y-117500000D02*
G75*
G03X84500000Y-119000000I1500000J0D01*
G01*
X84500000Y-120000000D02*
G75*
G03X83000000Y-121500000I0J-1500000D01*
G01*
X83000000Y-136500000D02*
G75*
G03X84500000Y-138000000I1500000J0D01*
G01*
X213500000Y-138000000D02*
G75*
G03X215000000Y-136500000I0J1500000D01*
G01*
X215000000Y-121500000D02*
G75*
G03X213500000Y-120000000I-1500000J0D01*
G01*
X213500000Y-119000000D02*
G75*
G03X215000000Y-117500000I0J1500000D01*
G01*
D12*
X201400000Y-87000000D03*
X201400000Y-89000000D03*
X201400000Y-88000000D03*
X201400000Y-85200000D03*
X201400000Y-83200000D03*
X201400000Y-84200000D03*
D13*
G36*
X209599009Y-86902408D02*
G01*
X209647545Y-86909607D01*
X209695142Y-86921530D01*
X209741342Y-86938060D01*
X209785698Y-86959039D01*
X209827785Y-86984265D01*
X209867197Y-87013495D01*
X209903553Y-87046447D01*
X209936505Y-87082803D01*
X209965735Y-87122215D01*
X209990961Y-87164302D01*
X210011940Y-87208658D01*
X210028470Y-87254858D01*
X210040393Y-87302455D01*
X210047592Y-87350991D01*
X210050000Y-87400000D01*
X210050000Y-88400000D01*
X210047592Y-88449009D01*
X210040393Y-88497545D01*
X210028470Y-88545142D01*
X210011940Y-88591342D01*
X209990961Y-88635698D01*
X209965735Y-88677785D01*
X209936505Y-88717197D01*
X209903553Y-88753553D01*
X209867197Y-88786505D01*
X209827785Y-88815735D01*
X209785698Y-88840961D01*
X209741342Y-88861940D01*
X209695142Y-88878470D01*
X209647545Y-88890393D01*
X209599009Y-88897592D01*
X209550000Y-88900000D01*
X208050000Y-88900000D01*
X208000991Y-88897592D01*
X207952455Y-88890393D01*
X207904858Y-88878470D01*
X207858658Y-88861940D01*
X207814302Y-88840961D01*
X207772215Y-88815735D01*
X207732803Y-88786505D01*
X207696447Y-88753553D01*
X207663495Y-88717197D01*
X207634265Y-88677785D01*
X207609039Y-88635698D01*
X207588060Y-88591342D01*
X207571530Y-88545142D01*
X207559607Y-88497545D01*
X207552408Y-88449009D01*
X207550000Y-88400000D01*
X207550000Y-87400000D01*
X207552408Y-87350991D01*
X207559607Y-87302455D01*
X207571530Y-87254858D01*
X207588060Y-87208658D01*
X207609039Y-87164302D01*
X207634265Y-87122215D01*
X207663495Y-87082803D01*
X207696447Y-87046447D01*
X207732803Y-87013495D01*
X207772215Y-86984265D01*
X207814302Y-86959039D01*
X207858658Y-86938060D01*
X207904858Y-86921530D01*
X207952455Y-86909607D01*
X208000991Y-86902408D01*
X208050000Y-86900000D01*
X209550000Y-86900000D01*
X209599009Y-86902408D01*
X209599009Y-86902408D01*
G37*
D14*
X208800000Y-87900000D03*
D13*
G36*
X204299009Y-82652408D02*
G01*
X204347545Y-82659607D01*
X204395142Y-82671530D01*
X204441342Y-82688060D01*
X204485698Y-82709039D01*
X204527785Y-82734265D01*
X204567197Y-82763495D01*
X204603553Y-82796447D01*
X204636505Y-82832803D01*
X204665735Y-82872215D01*
X204690961Y-82914302D01*
X204711940Y-82958658D01*
X204728470Y-83004858D01*
X204740393Y-83052455D01*
X204747592Y-83100991D01*
X204750000Y-83150000D01*
X204750000Y-84150000D01*
X204747592Y-84199009D01*
X204740393Y-84247545D01*
X204728470Y-84295142D01*
X204711940Y-84341342D01*
X204690961Y-84385698D01*
X204665735Y-84427785D01*
X204636505Y-84467197D01*
X204603553Y-84503553D01*
X204567197Y-84536505D01*
X204527785Y-84565735D01*
X204485698Y-84590961D01*
X204441342Y-84611940D01*
X204395142Y-84628470D01*
X204347545Y-84640393D01*
X204299009Y-84647592D01*
X204250000Y-84650000D01*
X202750000Y-84650000D01*
X202700991Y-84647592D01*
X202652455Y-84640393D01*
X202604858Y-84628470D01*
X202558658Y-84611940D01*
X202514302Y-84590961D01*
X202472215Y-84565735D01*
X202432803Y-84536505D01*
X202396447Y-84503553D01*
X202363495Y-84467197D01*
X202334265Y-84427785D01*
X202309039Y-84385698D01*
X202288060Y-84341342D01*
X202271530Y-84295142D01*
X202259607Y-84247545D01*
X202252408Y-84199009D01*
X202250000Y-84150000D01*
X202250000Y-83150000D01*
X202252408Y-83100991D01*
X202259607Y-83052455D01*
X202271530Y-83004858D01*
X202288060Y-82958658D01*
X202309039Y-82914302D01*
X202334265Y-82872215D01*
X202363495Y-82832803D01*
X202396447Y-82796447D01*
X202432803Y-82763495D01*
X202472215Y-82734265D01*
X202514302Y-82709039D01*
X202558658Y-82688060D01*
X202604858Y-82671530D01*
X202652455Y-82659607D01*
X202700991Y-82652408D01*
X202750000Y-82650000D01*
X204250000Y-82650000D01*
X204299009Y-82652408D01*
X204299009Y-82652408D01*
G37*
D14*
X203500000Y-83650000D03*
D13*
G36*
X204299009Y-88152408D02*
G01*
X204347545Y-88159607D01*
X204395142Y-88171530D01*
X204441342Y-88188060D01*
X204485698Y-88209039D01*
X204527785Y-88234265D01*
X204567197Y-88263495D01*
X204603553Y-88296447D01*
X204636505Y-88332803D01*
X204665735Y-88372215D01*
X204690961Y-88414302D01*
X204711940Y-88458658D01*
X204728470Y-88504858D01*
X204740393Y-88552455D01*
X204747592Y-88600991D01*
X204750000Y-88650000D01*
X204750000Y-89650000D01*
X204747592Y-89699009D01*
X204740393Y-89747545D01*
X204728470Y-89795142D01*
X204711940Y-89841342D01*
X204690961Y-89885698D01*
X204665735Y-89927785D01*
X204636505Y-89967197D01*
X204603553Y-90003553D01*
X204567197Y-90036505D01*
X204527785Y-90065735D01*
X204485698Y-90090961D01*
X204441342Y-90111940D01*
X204395142Y-90128470D01*
X204347545Y-90140393D01*
X204299009Y-90147592D01*
X204250000Y-90150000D01*
X202750000Y-90150000D01*
X202700991Y-90147592D01*
X202652455Y-90140393D01*
X202604858Y-90128470D01*
X202558658Y-90111940D01*
X202514302Y-90090961D01*
X202472215Y-90065735D01*
X202432803Y-90036505D01*
X202396447Y-90003553D01*
X202363495Y-89967197D01*
X202334265Y-89927785D01*
X202309039Y-89885698D01*
X202288060Y-89841342D01*
X202271530Y-89795142D01*
X202259607Y-89747545D01*
X202252408Y-89699009D01*
X202250000Y-89650000D01*
X202250000Y-88650000D01*
X202252408Y-88600991D01*
X202259607Y-88552455D01*
X202271530Y-88504858D01*
X202288060Y-88458658D01*
X202309039Y-88414302D01*
X202334265Y-88372215D01*
X202363495Y-88332803D01*
X202396447Y-88296447D01*
X202432803Y-88263495D01*
X202472215Y-88234265D01*
X202514302Y-88209039D01*
X202558658Y-88188060D01*
X202604858Y-88171530D01*
X202652455Y-88159607D01*
X202700991Y-88152408D01*
X202750000Y-88150000D01*
X204250000Y-88150000D01*
X204299009Y-88152408D01*
X204299009Y-88152408D01*
G37*
D14*
X203500000Y-89150000D03*
D13*
G36*
X209599009Y-83902408D02*
G01*
X209647545Y-83909607D01*
X209695142Y-83921530D01*
X209741342Y-83938060D01*
X209785698Y-83959039D01*
X209827785Y-83984265D01*
X209867197Y-84013495D01*
X209903553Y-84046447D01*
X209936505Y-84082803D01*
X209965735Y-84122215D01*
X209990961Y-84164302D01*
X210011940Y-84208658D01*
X210028470Y-84254858D01*
X210040393Y-84302455D01*
X210047592Y-84350991D01*
X210050000Y-84400000D01*
X210050000Y-85400000D01*
X210047592Y-85449009D01*
X210040393Y-85497545D01*
X210028470Y-85545142D01*
X210011940Y-85591342D01*
X209990961Y-85635698D01*
X209965735Y-85677785D01*
X209936505Y-85717197D01*
X209903553Y-85753553D01*
X209867197Y-85786505D01*
X209827785Y-85815735D01*
X209785698Y-85840961D01*
X209741342Y-85861940D01*
X209695142Y-85878470D01*
X209647545Y-85890393D01*
X209599009Y-85897592D01*
X209550000Y-85900000D01*
X208050000Y-85900000D01*
X208000991Y-85897592D01*
X207952455Y-85890393D01*
X207904858Y-85878470D01*
X207858658Y-85861940D01*
X207814302Y-85840961D01*
X207772215Y-85815735D01*
X207732803Y-85786505D01*
X207696447Y-85753553D01*
X207663495Y-85717197D01*
X207634265Y-85677785D01*
X207609039Y-85635698D01*
X207588060Y-85591342D01*
X207571530Y-85545142D01*
X207559607Y-85497545D01*
X207552408Y-85449009D01*
X207550000Y-85400000D01*
X207550000Y-84400000D01*
X207552408Y-84350991D01*
X207559607Y-84302455D01*
X207571530Y-84254858D01*
X207588060Y-84208658D01*
X207609039Y-84164302D01*
X207634265Y-84122215D01*
X207663495Y-84082803D01*
X207696447Y-84046447D01*
X207732803Y-84013495D01*
X207772215Y-83984265D01*
X207814302Y-83959039D01*
X207858658Y-83938060D01*
X207904858Y-83921530D01*
X207952455Y-83909607D01*
X208000991Y-83902408D01*
X208050000Y-83900000D01*
X209550000Y-83900000D01*
X209599009Y-83902408D01*
X209599009Y-83902408D01*
G37*
D14*
X208800000Y-84900000D03*
D15*
X205400000Y-86400000D03*
X212900000Y-86400000D03*
D16*
X213600000Y-92400000D03*
X207200000Y-92400000D03*
D17*
X197220000Y-85910000D03*
X197220000Y-90990000D03*
X199400000Y-85910000D03*
X199400000Y-90990000D03*
D18*
X198490000Y-47810000D03*
X198490000Y-50350000D03*
X198490000Y-52890000D03*
X198490000Y-55430000D03*
X198490000Y-57970000D03*
X198490000Y-60510000D03*
X198490000Y-63050000D03*
X198490000Y-65590000D03*
X198490000Y-68130000D03*
X198490000Y-70670000D03*
X198490000Y-73210000D03*
X198490000Y-75750000D03*
X213730000Y-75750000D03*
X213730000Y-73210000D03*
X213730000Y-70670000D03*
X213730000Y-68130000D03*
X213730000Y-65590000D03*
X213730000Y-63050000D03*
X213730000Y-60510000D03*
X213730000Y-57970000D03*
X213730000Y-55430000D03*
X213730000Y-52890000D03*
X213730000Y-50350000D03*
X213730000Y-47810000D03*
D19*
X139500000Y-100500000D03*
X139500000Y-62500000D03*
X158500000Y-119500000D03*
X120500000Y-119500000D03*
D20*
X208650000Y-96070000D03*
D17*
X208650000Y-98610000D03*
X206110000Y-96070000D03*
X206110000Y-98610000D03*
X203570000Y-96070000D03*
X203570000Y-98610000D03*
D19*
X139500000Y-119500000D03*
X196500000Y-119500000D03*
D21*
X113400000Y-48875000D03*
X113400000Y-47125000D03*
X108600000Y-48875000D03*
X108600000Y-47125000D03*
X94400000Y-48875000D03*
X94400000Y-47125000D03*
X89600000Y-48875000D03*
X89600000Y-47125000D03*
D22*
X199000000Y-98000000D03*
X212750000Y-98000000D03*
D19*
X177500000Y-119500000D03*
X177500000Y-100500000D03*
X177500000Y-62500000D03*
D22*
X199000000Y-135750000D03*
X212750000Y-135750000D03*
D17*
X197220000Y-101150000D03*
X199760000Y-101150000D03*
X212460000Y-101150000D03*
X209920000Y-101150000D03*
X207380000Y-101150000D03*
X204840000Y-101150000D03*
X202300000Y-101150000D03*
D22*
X199000000Y-116750000D03*
X212750000Y-116750000D03*
X199000000Y-80500000D03*
D17*
X209285000Y-80830000D03*
X206745000Y-80830000D03*
X204205000Y-80830000D03*
X201665000Y-80830000D03*
D19*
X101500000Y-100500000D03*
X101500000Y-119500000D03*
D17*
X209920000Y-70670000D03*
X207380000Y-70670000D03*
X204840000Y-70670000D03*
X202300000Y-70670000D03*
X202300000Y-68130000D03*
X204840000Y-68130000D03*
X207380000Y-68130000D03*
X209920000Y-68130000D03*
X209920000Y-65590000D03*
X207380000Y-65590000D03*
X204840000Y-65590000D03*
X202300000Y-65590000D03*
X202300000Y-63050000D03*
X204840000Y-63050000D03*
X207380000Y-63050000D03*
X209920000Y-63050000D03*
X209920000Y-60510000D03*
X207380000Y-60510000D03*
X204840000Y-60510000D03*
X202300000Y-60510000D03*
X202300000Y-57970000D03*
X204840000Y-57970000D03*
X207380000Y-57970000D03*
X209920000Y-57970000D03*
X209920000Y-55430000D03*
X207380000Y-55430000D03*
X204840000Y-55430000D03*
X202300000Y-55430000D03*
X202300000Y-52890000D03*
X204840000Y-52890000D03*
X207380000Y-52890000D03*
X209920000Y-52890000D03*
X209920000Y-50350000D03*
X207380000Y-50350000D03*
X204840000Y-50350000D03*
X202300000Y-50350000D03*
X202300000Y-47810000D03*
X204840000Y-47810000D03*
X207380000Y-47810000D03*
X209920000Y-47810000D03*
D23*
X209285000Y-77154620D03*
X209285000Y-78155380D03*
X206745000Y-77154620D03*
X206745000Y-78155380D03*
X204205000Y-77154620D03*
X204205000Y-78155380D03*
X201665000Y-77154620D03*
X201665000Y-78155380D03*
D19*
X101500000Y-62500000D03*
D24*
X100000000Y-56275000D03*
D20*
X100000000Y-58310000D03*
D17*
X100000000Y-50690000D03*
D24*
X100000000Y-52725000D03*
X103000000Y-56275000D03*
D20*
X103000000Y-58310000D03*
D17*
X103000000Y-50690000D03*
D24*
X103000000Y-52725000D03*
X120500000Y-56275000D03*
D20*
X120500000Y-58310000D03*
D17*
X120500000Y-50690000D03*
D24*
X120500000Y-52725000D03*
X139500000Y-56175000D03*
D20*
X139500000Y-58210000D03*
D17*
X139500000Y-50590000D03*
D24*
X139500000Y-52625000D03*
X158500000Y-56275000D03*
D20*
X158500000Y-58310000D03*
D17*
X158500000Y-50690000D03*
D24*
X158500000Y-52725000D03*
X177500000Y-56175000D03*
D20*
X177500000Y-58210000D03*
D17*
X177500000Y-50590000D03*
D24*
X177500000Y-52625000D03*
X100000000Y-76275000D03*
D20*
X100000000Y-78310000D03*
D17*
X100000000Y-70690000D03*
D24*
X100000000Y-72725000D03*
X103000000Y-76275000D03*
D20*
X103000000Y-78310000D03*
D17*
X103000000Y-70690000D03*
D24*
X103000000Y-72725000D03*
X120500000Y-76275000D03*
D20*
X120500000Y-78310000D03*
D17*
X120500000Y-70690000D03*
D24*
X120500000Y-72725000D03*
X139500000Y-76275000D03*
D20*
X139500000Y-78310000D03*
D17*
X139500000Y-70690000D03*
D24*
X139500000Y-72725000D03*
X158500000Y-76275000D03*
D20*
X158500000Y-78310000D03*
D17*
X158500000Y-70690000D03*
D24*
X158500000Y-72725000D03*
X177500000Y-76275000D03*
D20*
X177500000Y-78310000D03*
D17*
X177500000Y-70690000D03*
D24*
X177500000Y-72725000D03*
X100000000Y-94775000D03*
D20*
X100000000Y-96810000D03*
D17*
X100000000Y-89190000D03*
D24*
X100000000Y-91225000D03*
X103000000Y-94775000D03*
D20*
X103000000Y-96810000D03*
D17*
X103000000Y-89190000D03*
D24*
X103000000Y-91225000D03*
X120500000Y-95275000D03*
D20*
X120500000Y-97310000D03*
D17*
X120500000Y-89690000D03*
D24*
X120500000Y-91725000D03*
X139500000Y-94775000D03*
D20*
X139500000Y-96810000D03*
D17*
X139500000Y-89190000D03*
D24*
X139500000Y-91225000D03*
X158500000Y-95275000D03*
D20*
X158500000Y-97310000D03*
D17*
X158500000Y-89690000D03*
D24*
X158500000Y-91725000D03*
X177500000Y-94775000D03*
D20*
X177500000Y-96810000D03*
D17*
X177500000Y-89190000D03*
D24*
X177500000Y-91225000D03*
X100000000Y-113275000D03*
D20*
X100000000Y-115310000D03*
D17*
X100000000Y-107690000D03*
D24*
X100000000Y-109725000D03*
X103000000Y-113275000D03*
D20*
X103000000Y-115310000D03*
D17*
X103000000Y-107690000D03*
D24*
X103000000Y-109725000D03*
X120500000Y-113275000D03*
D20*
X120500000Y-115310000D03*
D17*
X120500000Y-107690000D03*
D24*
X120500000Y-109725000D03*
X139500000Y-113275000D03*
D20*
X139500000Y-115310000D03*
D17*
X139500000Y-107690000D03*
D24*
X139500000Y-109725000D03*
X158500000Y-113275000D03*
D20*
X158500000Y-115310000D03*
D17*
X158500000Y-107690000D03*
D24*
X158500000Y-109725000D03*
X177500000Y-113275000D03*
D20*
X177500000Y-115310000D03*
D17*
X177500000Y-107690000D03*
D24*
X177500000Y-109725000D03*
X195000000Y-113275000D03*
D20*
X195000000Y-115310000D03*
D17*
X195000000Y-107690000D03*
D24*
X195000000Y-109725000D03*
X100000000Y-133275000D03*
D20*
X100000000Y-135310000D03*
D17*
X100000000Y-127690000D03*
D24*
X100000000Y-129725000D03*
X103000000Y-133275000D03*
D20*
X103000000Y-135310000D03*
D17*
X103000000Y-127690000D03*
D24*
X103000000Y-129725000D03*
X120500000Y-131775000D03*
D20*
X120500000Y-133810000D03*
D17*
X120500000Y-126190000D03*
D24*
X120500000Y-128225000D03*
X139500000Y-133275000D03*
D20*
X139500000Y-135310000D03*
D17*
X139500000Y-127690000D03*
D24*
X139500000Y-129725000D03*
X158500000Y-133275000D03*
D20*
X158500000Y-135310000D03*
D17*
X158500000Y-127690000D03*
D24*
X158500000Y-129725000D03*
X177500000Y-131550000D03*
D20*
X177500000Y-133585000D03*
D17*
X177500000Y-125965000D03*
D24*
X177500000Y-128000000D03*
X195000000Y-133275000D03*
D20*
X195000000Y-135310000D03*
D17*
X195000000Y-127690000D03*
D24*
X195000000Y-129725000D03*
D18*
X197220000Y-49080000D03*
X197220000Y-51620000D03*
X197220000Y-54160000D03*
X197220000Y-56700000D03*
X197220000Y-59240000D03*
X197220000Y-61780000D03*
X197220000Y-64320000D03*
X197220000Y-66860000D03*
X197220000Y-69400000D03*
X197220000Y-71940000D03*
X197220000Y-74480000D03*
X197220000Y-77020000D03*
X212460000Y-77020000D03*
X212460000Y-74480000D03*
X212460000Y-71940000D03*
X212460000Y-69400000D03*
X212460000Y-66860000D03*
X212460000Y-64320000D03*
X212460000Y-61780000D03*
X212460000Y-59240000D03*
X212460000Y-56700000D03*
X212460000Y-54160000D03*
X212460000Y-51620000D03*
X212460000Y-49080000D03*
D22*
X212750000Y-80500000D03*
D25*
X192399620Y-121100000D03*
X193400380Y-121100000D03*
X200700380Y-121100000D03*
X199699620Y-121100000D03*
D21*
X132400000Y-48875000D03*
X132400000Y-47125000D03*
X127600000Y-48875000D03*
X127600000Y-47125000D03*
X151400000Y-48875000D03*
X151400000Y-47125000D03*
X146600000Y-48875000D03*
X146600000Y-47125000D03*
X170400000Y-48875000D03*
X170400000Y-47125000D03*
X165600000Y-48875000D03*
X165600000Y-47125000D03*
X89600000Y-66125000D03*
X89600000Y-67875000D03*
X94400000Y-66125000D03*
X94400000Y-67875000D03*
X108600000Y-66125000D03*
X108600000Y-67875000D03*
X113400000Y-66125000D03*
X113400000Y-67875000D03*
X127600000Y-66125000D03*
X127600000Y-67875000D03*
X132400000Y-66125000D03*
X132400000Y-67875000D03*
X146600000Y-66125000D03*
X146600000Y-67875000D03*
X151400000Y-66125000D03*
X151400000Y-67875000D03*
X165600000Y-66125000D03*
X165600000Y-67875000D03*
X170400000Y-66125000D03*
X170400000Y-67875000D03*
X184600000Y-66125000D03*
X184600000Y-67875000D03*
X189400000Y-66125000D03*
X189400000Y-67875000D03*
X94400000Y-86875000D03*
X94400000Y-85125000D03*
X89600000Y-86875000D03*
X89600000Y-85125000D03*
X113400000Y-86875000D03*
X113400000Y-85125000D03*
X108600000Y-86875000D03*
X108600000Y-85125000D03*
X132400000Y-86875000D03*
X132400000Y-85125000D03*
X127600000Y-86875000D03*
X127600000Y-85125000D03*
X151400000Y-86875000D03*
X151400000Y-85125000D03*
X146600000Y-86875000D03*
X146600000Y-85125000D03*
X170400000Y-86875000D03*
X170400000Y-85125000D03*
X165600000Y-86875000D03*
X165600000Y-85125000D03*
X189400000Y-86875000D03*
X189400000Y-85125000D03*
X184600000Y-86875000D03*
X184600000Y-85125000D03*
X89600000Y-104125000D03*
X89600000Y-105875000D03*
X94400000Y-104125000D03*
X94400000Y-105875000D03*
X108600000Y-104125000D03*
X108600000Y-105875000D03*
X113400000Y-104125000D03*
X113400000Y-105875000D03*
X127600000Y-104125000D03*
X127600000Y-105875000D03*
X132400000Y-104125000D03*
X132400000Y-105875000D03*
X146600000Y-104125000D03*
X146600000Y-105875000D03*
X151400000Y-104125000D03*
X151400000Y-105875000D03*
X165600000Y-104125000D03*
X165600000Y-105875000D03*
X170400000Y-104125000D03*
X170400000Y-105875000D03*
X184600000Y-104125000D03*
X184600000Y-105875000D03*
X189400000Y-104125000D03*
X189400000Y-105875000D03*
X203600000Y-104125000D03*
X203600000Y-105875000D03*
X208400000Y-104125000D03*
X208400000Y-105875000D03*
X94400000Y-124875000D03*
X94400000Y-123125000D03*
X89600000Y-124875000D03*
X89600000Y-123125000D03*
X113400000Y-124875000D03*
X113400000Y-123125000D03*
X108600000Y-124875000D03*
X108600000Y-123125000D03*
X132400000Y-124875000D03*
X132400000Y-123125000D03*
X127600000Y-124875000D03*
X127600000Y-123125000D03*
X151400000Y-124875000D03*
X151400000Y-123125000D03*
X146600000Y-124875000D03*
X146600000Y-123125000D03*
X170400000Y-124875000D03*
X170400000Y-123125000D03*
X165600000Y-124875000D03*
X165600000Y-123125000D03*
X189400000Y-124875000D03*
X189400000Y-123125000D03*
X184600000Y-124875000D03*
X184600000Y-123125000D03*
X208400000Y-124875000D03*
X208400000Y-123125000D03*
X203600000Y-124875000D03*
X203600000Y-123125000D03*
X189400000Y-48875000D03*
X189400000Y-47125000D03*
X184600000Y-48875000D03*
X184600000Y-47125000D03*
D26*
X195000000Y-86580000D03*
X195000000Y-84040000D03*
X195000000Y-81500000D03*
D15*
X135220000Y-67800000D03*
X124780000Y-67800000D03*
D27*
X135080000Y-72000000D03*
X124920000Y-72000000D03*
D28*
X132540000Y-76500000D03*
X132540000Y-76000000D03*
X127460000Y-76000000D03*
X127460000Y-76500000D03*
D29*
X126190000Y-74540000D03*
D30*
X126591742Y-75018778D02*
X125788258Y-74061222D01*
D28*
X132540000Y-77080000D03*
D29*
X133810000Y-74540000D03*
D30*
X134211742Y-74061222D02*
X133408258Y-75018778D01*
D28*
X127460000Y-77080000D03*
D22*
X130000000Y-77900000D03*
D31*
X135100000Y-75900000D03*
D32*
X135405324Y-75536129D02*
X134794676Y-76263871D01*
D33*
X124500000Y-72000000D03*
X135500000Y-72000000D03*
D34*
X130000000Y-72000000D03*
D31*
X124900000Y-75900000D03*
D32*
X125205324Y-76263871D02*
X124594676Y-75536129D01*
D15*
X154220000Y-48800000D03*
X143780000Y-48800000D03*
D27*
X154080000Y-53000000D03*
X143920000Y-53000000D03*
D28*
X151540000Y-57500000D03*
X151540000Y-57000000D03*
X146460000Y-57000000D03*
X146460000Y-57500000D03*
D29*
X145190000Y-55540000D03*
D30*
X145591742Y-56018778D02*
X144788258Y-55061222D01*
D28*
X151540000Y-58080000D03*
D29*
X152810000Y-55540000D03*
D30*
X153211742Y-55061222D02*
X152408258Y-56018778D01*
D28*
X146460000Y-58080000D03*
D22*
X149000000Y-58900000D03*
D31*
X154100000Y-56900000D03*
D32*
X154405324Y-56536129D02*
X153794676Y-57263871D01*
D33*
X143500000Y-53000000D03*
X154500000Y-53000000D03*
D34*
X149000000Y-53000000D03*
D31*
X143900000Y-56900000D03*
D32*
X144205324Y-57263871D02*
X143594676Y-56536129D01*
D15*
X97220000Y-48800000D03*
X86780000Y-48800000D03*
D27*
X97080000Y-53000000D03*
X86920000Y-53000000D03*
D28*
X94540000Y-57500000D03*
X94540000Y-57000000D03*
X89460000Y-57000000D03*
X89460000Y-57500000D03*
D29*
X88190000Y-55540000D03*
D30*
X88591742Y-56018778D02*
X87788258Y-55061222D01*
D28*
X94540000Y-58080000D03*
D29*
X95810000Y-55540000D03*
D30*
X96211742Y-55061222D02*
X95408258Y-56018778D01*
D28*
X89460000Y-58080000D03*
D22*
X92000000Y-58900000D03*
D31*
X97100000Y-56900000D03*
D32*
X97405324Y-56536129D02*
X96794676Y-57263871D01*
D33*
X86500000Y-53000000D03*
X97500000Y-53000000D03*
D34*
X92000000Y-53000000D03*
D31*
X86900000Y-56900000D03*
D32*
X87205324Y-57263871D02*
X86594676Y-56536129D01*
D15*
X211220000Y-124800000D03*
X200780000Y-124800000D03*
D27*
X211080000Y-129000000D03*
X200920000Y-129000000D03*
D28*
X208540000Y-133500000D03*
X208540000Y-133000000D03*
X203460000Y-133000000D03*
X203460000Y-133500000D03*
D29*
X202190000Y-131540000D03*
D30*
X202591742Y-132018778D02*
X201788258Y-131061222D01*
D28*
X208540000Y-134080000D03*
D29*
X209810000Y-131540000D03*
D30*
X210211742Y-131061222D02*
X209408258Y-132018778D01*
D28*
X203460000Y-134080000D03*
D22*
X206000000Y-134900000D03*
D31*
X211100000Y-132900000D03*
D32*
X211405324Y-132536129D02*
X210794676Y-133263871D01*
D33*
X200500000Y-129000000D03*
X211500000Y-129000000D03*
D34*
X206000000Y-129000000D03*
D31*
X200900000Y-132900000D03*
D32*
X201205324Y-133263871D02*
X200594676Y-132536129D01*
D15*
X192220000Y-124800000D03*
X181780000Y-124800000D03*
D27*
X192080000Y-129000000D03*
X181920000Y-129000000D03*
D28*
X189540000Y-133500000D03*
X189540000Y-133000000D03*
X184460000Y-133000000D03*
X184460000Y-133500000D03*
D29*
X183190000Y-131540000D03*
D30*
X183591742Y-132018778D02*
X182788258Y-131061222D01*
D28*
X189540000Y-134080000D03*
D29*
X190810000Y-131540000D03*
D30*
X191211742Y-131061222D02*
X190408258Y-132018778D01*
D28*
X184460000Y-134080000D03*
D22*
X187000000Y-134900000D03*
D31*
X192100000Y-132900000D03*
D32*
X192405324Y-132536129D02*
X191794676Y-133263871D01*
D33*
X181500000Y-129000000D03*
X192500000Y-129000000D03*
D34*
X187000000Y-129000000D03*
D31*
X181900000Y-132900000D03*
D32*
X182205324Y-133263871D02*
X181594676Y-132536129D01*
D15*
X173220000Y-124800000D03*
X162780000Y-124800000D03*
D27*
X173080000Y-129000000D03*
X162920000Y-129000000D03*
D28*
X170540000Y-133500000D03*
X170540000Y-133000000D03*
X165460000Y-133000000D03*
X165460000Y-133500000D03*
D29*
X164190000Y-131540000D03*
D30*
X164591742Y-132018778D02*
X163788258Y-131061222D01*
D28*
X170540000Y-134080000D03*
D29*
X171810000Y-131540000D03*
D30*
X172211742Y-131061222D02*
X171408258Y-132018778D01*
D28*
X165460000Y-134080000D03*
D22*
X168000000Y-134900000D03*
D31*
X173100000Y-132900000D03*
D32*
X173405324Y-132536129D02*
X172794676Y-133263871D01*
D33*
X162500000Y-129000000D03*
X173500000Y-129000000D03*
D34*
X168000000Y-129000000D03*
D31*
X162900000Y-132900000D03*
D32*
X163205324Y-133263871D02*
X162594676Y-132536129D01*
D15*
X154220000Y-124800000D03*
X143780000Y-124800000D03*
D27*
X154080000Y-129000000D03*
X143920000Y-129000000D03*
D28*
X151540000Y-133500000D03*
X151540000Y-133000000D03*
X146460000Y-133000000D03*
X146460000Y-133500000D03*
D29*
X145190000Y-131540000D03*
D30*
X145591742Y-132018778D02*
X144788258Y-131061222D01*
D28*
X151540000Y-134080000D03*
D29*
X152810000Y-131540000D03*
D30*
X153211742Y-131061222D02*
X152408258Y-132018778D01*
D28*
X146460000Y-134080000D03*
D22*
X149000000Y-134900000D03*
D31*
X154100000Y-132900000D03*
D32*
X154405324Y-132536129D02*
X153794676Y-133263871D01*
D33*
X143500000Y-129000000D03*
X154500000Y-129000000D03*
D34*
X149000000Y-129000000D03*
D31*
X143900000Y-132900000D03*
D32*
X144205324Y-133263871D02*
X143594676Y-132536129D01*
D15*
X135220000Y-124800000D03*
X124780000Y-124800000D03*
D27*
X135080000Y-129000000D03*
X124920000Y-129000000D03*
D28*
X132540000Y-133500000D03*
X132540000Y-133000000D03*
X127460000Y-133000000D03*
X127460000Y-133500000D03*
D29*
X126190000Y-131540000D03*
D30*
X126591742Y-132018778D02*
X125788258Y-131061222D01*
D28*
X132540000Y-134080000D03*
D29*
X133810000Y-131540000D03*
D30*
X134211742Y-131061222D02*
X133408258Y-132018778D01*
D28*
X127460000Y-134080000D03*
D22*
X130000000Y-134900000D03*
D31*
X135100000Y-132900000D03*
D32*
X135405324Y-132536129D02*
X134794676Y-133263871D01*
D33*
X124500000Y-129000000D03*
X135500000Y-129000000D03*
D34*
X130000000Y-129000000D03*
D31*
X124900000Y-132900000D03*
D32*
X125205324Y-133263871D02*
X124594676Y-132536129D01*
D15*
X116220000Y-124800000D03*
X105780000Y-124800000D03*
D27*
X116080000Y-129000000D03*
X105920000Y-129000000D03*
D28*
X113540000Y-133500000D03*
X113540000Y-133000000D03*
X108460000Y-133000000D03*
X108460000Y-133500000D03*
D29*
X107190000Y-131540000D03*
D30*
X107591742Y-132018778D02*
X106788258Y-131061222D01*
D28*
X113540000Y-134080000D03*
D29*
X114810000Y-131540000D03*
D30*
X115211742Y-131061222D02*
X114408258Y-132018778D01*
D28*
X108460000Y-134080000D03*
D22*
X111000000Y-134900000D03*
D31*
X116100000Y-132900000D03*
D32*
X116405324Y-132536129D02*
X115794676Y-133263871D01*
D33*
X105500000Y-129000000D03*
X116500000Y-129000000D03*
D34*
X111000000Y-129000000D03*
D31*
X105900000Y-132900000D03*
D32*
X106205324Y-133263871D02*
X105594676Y-132536129D01*
D15*
X97220000Y-124800000D03*
X86780000Y-124800000D03*
D27*
X97080000Y-129000000D03*
X86920000Y-129000000D03*
D28*
X94540000Y-133500000D03*
X94540000Y-133000000D03*
X89460000Y-133000000D03*
X89460000Y-133500000D03*
D29*
X88190000Y-131540000D03*
D30*
X88591742Y-132018778D02*
X87788258Y-131061222D01*
D28*
X94540000Y-134080000D03*
D29*
X95810000Y-131540000D03*
D30*
X96211742Y-131061222D02*
X95408258Y-132018778D01*
D28*
X89460000Y-134080000D03*
D22*
X92000000Y-134900000D03*
D31*
X97100000Y-132900000D03*
D32*
X97405324Y-132536129D02*
X96794676Y-133263871D01*
D33*
X86500000Y-129000000D03*
X97500000Y-129000000D03*
D34*
X92000000Y-129000000D03*
D31*
X86900000Y-132900000D03*
D32*
X87205324Y-133263871D02*
X86594676Y-132536129D01*
D15*
X211220000Y-105800000D03*
X200780000Y-105800000D03*
D27*
X211080000Y-110000000D03*
X200920000Y-110000000D03*
D28*
X208540000Y-114500000D03*
X208540000Y-114000000D03*
X203460000Y-114000000D03*
X203460000Y-114500000D03*
D29*
X202190000Y-112540000D03*
D30*
X202591742Y-113018778D02*
X201788258Y-112061222D01*
D28*
X208540000Y-115080000D03*
D29*
X209810000Y-112540000D03*
D30*
X210211742Y-112061222D02*
X209408258Y-113018778D01*
D28*
X203460000Y-115080000D03*
D22*
X206000000Y-115900000D03*
D31*
X211100000Y-113900000D03*
D32*
X211405324Y-113536129D02*
X210794676Y-114263871D01*
D33*
X200500000Y-110000000D03*
X211500000Y-110000000D03*
D34*
X206000000Y-110000000D03*
D31*
X200900000Y-113900000D03*
D32*
X201205324Y-114263871D02*
X200594676Y-113536129D01*
D15*
X192220000Y-105800000D03*
X181780000Y-105800000D03*
D27*
X192080000Y-110000000D03*
X181920000Y-110000000D03*
D28*
X189540000Y-114500000D03*
X189540000Y-114000000D03*
X184460000Y-114000000D03*
X184460000Y-114500000D03*
D29*
X183190000Y-112540000D03*
D30*
X183591742Y-113018778D02*
X182788258Y-112061222D01*
D28*
X189540000Y-115080000D03*
D29*
X190810000Y-112540000D03*
D30*
X191211742Y-112061222D02*
X190408258Y-113018778D01*
D28*
X184460000Y-115080000D03*
D22*
X187000000Y-115900000D03*
D31*
X192100000Y-113900000D03*
D32*
X192405324Y-113536129D02*
X191794676Y-114263871D01*
D33*
X181500000Y-110000000D03*
X192500000Y-110000000D03*
D34*
X187000000Y-110000000D03*
D31*
X181900000Y-113900000D03*
D32*
X182205324Y-114263871D02*
X181594676Y-113536129D01*
D15*
X173220000Y-105800000D03*
X162780000Y-105800000D03*
D27*
X173080000Y-110000000D03*
X162920000Y-110000000D03*
D28*
X170540000Y-114500000D03*
X170540000Y-114000000D03*
X165460000Y-114000000D03*
X165460000Y-114500000D03*
D29*
X164190000Y-112540000D03*
D30*
X164591742Y-113018778D02*
X163788258Y-112061222D01*
D28*
X170540000Y-115080000D03*
D29*
X171810000Y-112540000D03*
D30*
X172211742Y-112061222D02*
X171408258Y-113018778D01*
D28*
X165460000Y-115080000D03*
D22*
X168000000Y-115900000D03*
D31*
X173100000Y-113900000D03*
D32*
X173405324Y-113536129D02*
X172794676Y-114263871D01*
D33*
X162500000Y-110000000D03*
X173500000Y-110000000D03*
D34*
X168000000Y-110000000D03*
D31*
X162900000Y-113900000D03*
D32*
X163205324Y-114263871D02*
X162594676Y-113536129D01*
D15*
X154220000Y-105800000D03*
X143780000Y-105800000D03*
D27*
X154080000Y-110000000D03*
X143920000Y-110000000D03*
D28*
X151540000Y-114500000D03*
X151540000Y-114000000D03*
X146460000Y-114000000D03*
X146460000Y-114500000D03*
D29*
X145190000Y-112540000D03*
D30*
X145591742Y-113018778D02*
X144788258Y-112061222D01*
D28*
X151540000Y-115080000D03*
D29*
X152810000Y-112540000D03*
D30*
X153211742Y-112061222D02*
X152408258Y-113018778D01*
D28*
X146460000Y-115080000D03*
D22*
X149000000Y-115900000D03*
D31*
X154100000Y-113900000D03*
D32*
X154405324Y-113536129D02*
X153794676Y-114263871D01*
D33*
X143500000Y-110000000D03*
X154500000Y-110000000D03*
D34*
X149000000Y-110000000D03*
D31*
X143900000Y-113900000D03*
D32*
X144205324Y-114263871D02*
X143594676Y-113536129D01*
D15*
X135220000Y-105800000D03*
X124780000Y-105800000D03*
D27*
X135080000Y-110000000D03*
X124920000Y-110000000D03*
D28*
X132540000Y-114500000D03*
X132540000Y-114000000D03*
X127460000Y-114000000D03*
X127460000Y-114500000D03*
D29*
X126190000Y-112540000D03*
D30*
X126591742Y-113018778D02*
X125788258Y-112061222D01*
D28*
X132540000Y-115080000D03*
D29*
X133810000Y-112540000D03*
D30*
X134211742Y-112061222D02*
X133408258Y-113018778D01*
D28*
X127460000Y-115080000D03*
D22*
X130000000Y-115900000D03*
D31*
X135100000Y-113900000D03*
D32*
X135405324Y-113536129D02*
X134794676Y-114263871D01*
D33*
X124500000Y-110000000D03*
X135500000Y-110000000D03*
D34*
X130000000Y-110000000D03*
D31*
X124900000Y-113900000D03*
D32*
X125205324Y-114263871D02*
X124594676Y-113536129D01*
D15*
X116220000Y-105800000D03*
X105780000Y-105800000D03*
D27*
X116080000Y-110000000D03*
X105920000Y-110000000D03*
D28*
X113540000Y-114500000D03*
X113540000Y-114000000D03*
X108460000Y-114000000D03*
X108460000Y-114500000D03*
D29*
X107190000Y-112540000D03*
D30*
X107591742Y-113018778D02*
X106788258Y-112061222D01*
D28*
X113540000Y-115080000D03*
D29*
X114810000Y-112540000D03*
D30*
X115211742Y-112061222D02*
X114408258Y-113018778D01*
D28*
X108460000Y-115080000D03*
D22*
X111000000Y-115900000D03*
D31*
X116100000Y-113900000D03*
D32*
X116405324Y-113536129D02*
X115794676Y-114263871D01*
D33*
X105500000Y-110000000D03*
X116500000Y-110000000D03*
D34*
X111000000Y-110000000D03*
D31*
X105900000Y-113900000D03*
D32*
X106205324Y-114263871D02*
X105594676Y-113536129D01*
D15*
X97220000Y-105800000D03*
X86780000Y-105800000D03*
D27*
X97080000Y-110000000D03*
X86920000Y-110000000D03*
D28*
X94540000Y-114500000D03*
X94540000Y-114000000D03*
X89460000Y-114000000D03*
X89460000Y-114500000D03*
D29*
X88190000Y-112540000D03*
D30*
X88591742Y-113018778D02*
X87788258Y-112061222D01*
D28*
X94540000Y-115080000D03*
D29*
X95810000Y-112540000D03*
D30*
X96211742Y-112061222D02*
X95408258Y-113018778D01*
D28*
X89460000Y-115080000D03*
D22*
X92000000Y-115900000D03*
D31*
X97100000Y-113900000D03*
D32*
X97405324Y-113536129D02*
X96794676Y-114263871D01*
D33*
X86500000Y-110000000D03*
X97500000Y-110000000D03*
D34*
X92000000Y-110000000D03*
D31*
X86900000Y-113900000D03*
D32*
X87205324Y-114263871D02*
X86594676Y-113536129D01*
D15*
X192220000Y-86800000D03*
X181780000Y-86800000D03*
D27*
X192080000Y-91000000D03*
X181920000Y-91000000D03*
D28*
X189540000Y-95500000D03*
X189540000Y-95000000D03*
X184460000Y-95000000D03*
X184460000Y-95500000D03*
D29*
X183190000Y-93540000D03*
D30*
X183591742Y-94018778D02*
X182788258Y-93061222D01*
D28*
X189540000Y-96080000D03*
D29*
X190810000Y-93540000D03*
D30*
X191211742Y-93061222D02*
X190408258Y-94018778D01*
D28*
X184460000Y-96080000D03*
D22*
X187000000Y-96900000D03*
D31*
X192100000Y-94900000D03*
D32*
X192405324Y-94536129D02*
X191794676Y-95263871D01*
D33*
X181500000Y-91000000D03*
X192500000Y-91000000D03*
D34*
X187000000Y-91000000D03*
D31*
X181900000Y-94900000D03*
D32*
X182205324Y-95263871D02*
X181594676Y-94536129D01*
D15*
X173220000Y-86800000D03*
X162780000Y-86800000D03*
D27*
X173080000Y-91000000D03*
X162920000Y-91000000D03*
D28*
X170540000Y-95500000D03*
X170540000Y-95000000D03*
X165460000Y-95000000D03*
X165460000Y-95500000D03*
D29*
X164190000Y-93540000D03*
D30*
X164591742Y-94018778D02*
X163788258Y-93061222D01*
D28*
X170540000Y-96080000D03*
D29*
X171810000Y-93540000D03*
D30*
X172211742Y-93061222D02*
X171408258Y-94018778D01*
D28*
X165460000Y-96080000D03*
D22*
X168000000Y-96900000D03*
D31*
X173100000Y-94900000D03*
D32*
X173405324Y-94536129D02*
X172794676Y-95263871D01*
D33*
X162500000Y-91000000D03*
X173500000Y-91000000D03*
D34*
X168000000Y-91000000D03*
D31*
X162900000Y-94900000D03*
D32*
X163205324Y-95263871D02*
X162594676Y-94536129D01*
D15*
X154220000Y-86800000D03*
X143780000Y-86800000D03*
D27*
X154080000Y-91000000D03*
X143920000Y-91000000D03*
D28*
X151540000Y-95500000D03*
X151540000Y-95000000D03*
X146460000Y-95000000D03*
X146460000Y-95500000D03*
D29*
X145190000Y-93540000D03*
D30*
X145591742Y-94018778D02*
X144788258Y-93061222D01*
D28*
X151540000Y-96080000D03*
D29*
X152810000Y-93540000D03*
D30*
X153211742Y-93061222D02*
X152408258Y-94018778D01*
D28*
X146460000Y-96080000D03*
D22*
X149000000Y-96900000D03*
D31*
X154100000Y-94900000D03*
D32*
X154405324Y-94536129D02*
X153794676Y-95263871D01*
D33*
X143500000Y-91000000D03*
X154500000Y-91000000D03*
D34*
X149000000Y-91000000D03*
D31*
X143900000Y-94900000D03*
D32*
X144205324Y-95263871D02*
X143594676Y-94536129D01*
D15*
X135220000Y-86800000D03*
X124780000Y-86800000D03*
D27*
X135080000Y-91000000D03*
X124920000Y-91000000D03*
D28*
X132540000Y-95500000D03*
X132540000Y-95000000D03*
X127460000Y-95000000D03*
X127460000Y-95500000D03*
D29*
X126190000Y-93540000D03*
D30*
X126591742Y-94018778D02*
X125788258Y-93061222D01*
D28*
X132540000Y-96080000D03*
D29*
X133810000Y-93540000D03*
D30*
X134211742Y-93061222D02*
X133408258Y-94018778D01*
D28*
X127460000Y-96080000D03*
D22*
X130000000Y-96900000D03*
D31*
X135100000Y-94900000D03*
D32*
X135405324Y-94536129D02*
X134794676Y-95263871D01*
D33*
X124500000Y-91000000D03*
X135500000Y-91000000D03*
D34*
X130000000Y-91000000D03*
D31*
X124900000Y-94900000D03*
D32*
X125205324Y-95263871D02*
X124594676Y-94536129D01*
D15*
X116220000Y-86800000D03*
X105780000Y-86800000D03*
D27*
X116080000Y-91000000D03*
X105920000Y-91000000D03*
D28*
X113540000Y-95500000D03*
X113540000Y-95000000D03*
X108460000Y-95000000D03*
X108460000Y-95500000D03*
D29*
X107190000Y-93540000D03*
D30*
X107591742Y-94018778D02*
X106788258Y-93061222D01*
D28*
X113540000Y-96080000D03*
D29*
X114810000Y-93540000D03*
D30*
X115211742Y-93061222D02*
X114408258Y-94018778D01*
D28*
X108460000Y-96080000D03*
D22*
X111000000Y-96900000D03*
D31*
X116100000Y-94900000D03*
D32*
X116405324Y-94536129D02*
X115794676Y-95263871D01*
D33*
X105500000Y-91000000D03*
X116500000Y-91000000D03*
D34*
X111000000Y-91000000D03*
D31*
X105900000Y-94900000D03*
D32*
X106205324Y-95263871D02*
X105594676Y-94536129D01*
D15*
X97220000Y-86800000D03*
X86780000Y-86800000D03*
D27*
X97080000Y-91000000D03*
X86920000Y-91000000D03*
D28*
X94540000Y-95500000D03*
X94540000Y-95000000D03*
X89460000Y-95000000D03*
X89460000Y-95500000D03*
D29*
X88190000Y-93540000D03*
D30*
X88591742Y-94018778D02*
X87788258Y-93061222D01*
D28*
X94540000Y-96080000D03*
D29*
X95810000Y-93540000D03*
D30*
X96211742Y-93061222D02*
X95408258Y-94018778D01*
D28*
X89460000Y-96080000D03*
D22*
X92000000Y-96900000D03*
D31*
X97100000Y-94900000D03*
D32*
X97405324Y-94536129D02*
X96794676Y-95263871D01*
D33*
X86500000Y-91000000D03*
X97500000Y-91000000D03*
D34*
X92000000Y-91000000D03*
D31*
X86900000Y-94900000D03*
D32*
X87205324Y-95263871D02*
X86594676Y-94536129D01*
D15*
X192220000Y-67800000D03*
X181780000Y-67800000D03*
D27*
X192080000Y-72000000D03*
X181920000Y-72000000D03*
D28*
X189540000Y-76500000D03*
X189540000Y-76000000D03*
X184460000Y-76000000D03*
X184460000Y-76500000D03*
D29*
X183190000Y-74540000D03*
D30*
X183591742Y-75018778D02*
X182788258Y-74061222D01*
D28*
X189540000Y-77080000D03*
D29*
X190810000Y-74540000D03*
D30*
X191211742Y-74061222D02*
X190408258Y-75018778D01*
D28*
X184460000Y-77080000D03*
D22*
X187000000Y-77900000D03*
D31*
X192100000Y-75900000D03*
D32*
X192405324Y-75536129D02*
X191794676Y-76263871D01*
D33*
X181500000Y-72000000D03*
X192500000Y-72000000D03*
D34*
X187000000Y-72000000D03*
D31*
X181900000Y-75900000D03*
D32*
X182205324Y-76263871D02*
X181594676Y-75536129D01*
D15*
X173220000Y-67800000D03*
X162780000Y-67800000D03*
D27*
X173080000Y-72000000D03*
X162920000Y-72000000D03*
D28*
X170540000Y-76500000D03*
X170540000Y-76000000D03*
X165460000Y-76000000D03*
X165460000Y-76500000D03*
D29*
X164190000Y-74540000D03*
D30*
X164591742Y-75018778D02*
X163788258Y-74061222D01*
D28*
X170540000Y-77080000D03*
D29*
X171810000Y-74540000D03*
D30*
X172211742Y-74061222D02*
X171408258Y-75018778D01*
D28*
X165460000Y-77080000D03*
D22*
X168000000Y-77900000D03*
D31*
X173100000Y-75900000D03*
D32*
X173405324Y-75536129D02*
X172794676Y-76263871D01*
D33*
X162500000Y-72000000D03*
X173500000Y-72000000D03*
D34*
X168000000Y-72000000D03*
D31*
X162900000Y-75900000D03*
D32*
X163205324Y-76263871D02*
X162594676Y-75536129D01*
D15*
X154220000Y-67800000D03*
X143780000Y-67800000D03*
D27*
X154080000Y-72000000D03*
X143920000Y-72000000D03*
D28*
X151540000Y-76500000D03*
X151540000Y-76000000D03*
X146460000Y-76000000D03*
X146460000Y-76500000D03*
D29*
X145190000Y-74540000D03*
D30*
X145591742Y-75018778D02*
X144788258Y-74061222D01*
D28*
X151540000Y-77080000D03*
D29*
X152810000Y-74540000D03*
D30*
X153211742Y-74061222D02*
X152408258Y-75018778D01*
D28*
X146460000Y-77080000D03*
D22*
X149000000Y-77900000D03*
D31*
X154100000Y-75900000D03*
D32*
X154405324Y-75536129D02*
X153794676Y-76263871D01*
D33*
X143500000Y-72000000D03*
X154500000Y-72000000D03*
D34*
X149000000Y-72000000D03*
D31*
X143900000Y-75900000D03*
D32*
X144205324Y-76263871D02*
X143594676Y-75536129D01*
D15*
X116220000Y-67800000D03*
X105780000Y-67800000D03*
D27*
X116080000Y-72000000D03*
X105920000Y-72000000D03*
D28*
X113540000Y-76500000D03*
X113540000Y-76000000D03*
X108460000Y-76000000D03*
X108460000Y-76500000D03*
D29*
X107190000Y-74540000D03*
D30*
X107591742Y-75018778D02*
X106788258Y-74061222D01*
D28*
X113540000Y-77080000D03*
D29*
X114810000Y-74540000D03*
D30*
X115211742Y-74061222D02*
X114408258Y-75018778D01*
D28*
X108460000Y-77080000D03*
D22*
X111000000Y-77900000D03*
D31*
X116100000Y-75900000D03*
D32*
X116405324Y-75536129D02*
X115794676Y-76263871D01*
D33*
X105500000Y-72000000D03*
X116500000Y-72000000D03*
D34*
X111000000Y-72000000D03*
D31*
X105900000Y-75900000D03*
D32*
X106205324Y-76263871D02*
X105594676Y-75536129D01*
D15*
X97220000Y-67800000D03*
X86780000Y-67800000D03*
D27*
X97080000Y-72000000D03*
X86920000Y-72000000D03*
D28*
X94540000Y-76500000D03*
X94540000Y-76000000D03*
X89460000Y-76000000D03*
X89460000Y-76500000D03*
D29*
X88190000Y-74540000D03*
D30*
X88591742Y-75018778D02*
X87788258Y-74061222D01*
D28*
X94540000Y-77080000D03*
D29*
X95810000Y-74540000D03*
D30*
X96211742Y-74061222D02*
X95408258Y-75018778D01*
D28*
X89460000Y-77080000D03*
D22*
X92000000Y-77900000D03*
D31*
X97100000Y-75900000D03*
D32*
X97405324Y-75536129D02*
X96794676Y-76263871D01*
D33*
X86500000Y-72000000D03*
X97500000Y-72000000D03*
D34*
X92000000Y-72000000D03*
D31*
X86900000Y-75900000D03*
D32*
X87205324Y-76263871D02*
X86594676Y-75536129D01*
D15*
X173220000Y-48800000D03*
X162780000Y-48800000D03*
D27*
X173080000Y-53000000D03*
X162920000Y-53000000D03*
D28*
X170540000Y-57500000D03*
X170540000Y-57000000D03*
X165460000Y-57000000D03*
X165460000Y-57500000D03*
D29*
X164190000Y-55540000D03*
D30*
X164591742Y-56018778D02*
X163788258Y-55061222D01*
D28*
X170540000Y-58080000D03*
D29*
X171810000Y-55540000D03*
D30*
X172211742Y-55061222D02*
X171408258Y-56018778D01*
D28*
X165460000Y-58080000D03*
D22*
X168000000Y-58900000D03*
D31*
X173100000Y-56900000D03*
D32*
X173405324Y-56536129D02*
X172794676Y-57263871D01*
D33*
X162500000Y-53000000D03*
X173500000Y-53000000D03*
D34*
X168000000Y-53000000D03*
D31*
X162900000Y-56900000D03*
D32*
X163205324Y-57263871D02*
X162594676Y-56536129D01*
D15*
X135220000Y-48800000D03*
X124780000Y-48800000D03*
D27*
X135080000Y-53000000D03*
X124920000Y-53000000D03*
D28*
X132540000Y-57500000D03*
X132540000Y-57000000D03*
X127460000Y-57000000D03*
X127460000Y-57500000D03*
D29*
X126190000Y-55540000D03*
D30*
X126591742Y-56018778D02*
X125788258Y-55061222D01*
D28*
X132540000Y-58080000D03*
D29*
X133810000Y-55540000D03*
D30*
X134211742Y-55061222D02*
X133408258Y-56018778D01*
D28*
X127460000Y-58080000D03*
D22*
X130000000Y-58900000D03*
D31*
X135100000Y-56900000D03*
D32*
X135405324Y-56536129D02*
X134794676Y-57263871D01*
D33*
X124500000Y-53000000D03*
X135500000Y-53000000D03*
D34*
X130000000Y-53000000D03*
D31*
X124900000Y-56900000D03*
D32*
X125205324Y-57263871D02*
X124594676Y-56536129D01*
D15*
X116220000Y-48800000D03*
X105780000Y-48800000D03*
D27*
X116080000Y-53000000D03*
X105920000Y-53000000D03*
D28*
X113540000Y-57500000D03*
X113540000Y-57000000D03*
X108460000Y-57000000D03*
X108460000Y-57500000D03*
D29*
X107190000Y-55540000D03*
D30*
X107591742Y-56018778D02*
X106788258Y-55061222D01*
D28*
X113540000Y-58080000D03*
D29*
X114810000Y-55540000D03*
D30*
X115211742Y-55061222D02*
X114408258Y-56018778D01*
D28*
X108460000Y-58080000D03*
D22*
X111000000Y-58900000D03*
D31*
X116100000Y-56900000D03*
D32*
X116405324Y-56536129D02*
X115794676Y-57263871D01*
D33*
X105500000Y-53000000D03*
X116500000Y-53000000D03*
D34*
X111000000Y-53000000D03*
D31*
X105900000Y-56900000D03*
D32*
X106205324Y-57263871D02*
X105594676Y-56536129D01*
D15*
X192220000Y-48800000D03*
X181780000Y-48800000D03*
D27*
X192080000Y-53000000D03*
X181920000Y-53000000D03*
D28*
X189540000Y-57500000D03*
X189540000Y-57000000D03*
X184460000Y-57000000D03*
X184460000Y-57500000D03*
D29*
X183190000Y-55540000D03*
D30*
X183591742Y-56018778D02*
X182788258Y-55061222D01*
D28*
X189540000Y-58080000D03*
D29*
X190810000Y-55540000D03*
D30*
X191211742Y-55061222D02*
X190408258Y-56018778D01*
D28*
X184460000Y-58080000D03*
D22*
X187000000Y-58900000D03*
D31*
X192100000Y-56900000D03*
D32*
X192405324Y-56536129D02*
X191794676Y-57263871D01*
D33*
X181500000Y-53000000D03*
X192500000Y-53000000D03*
D34*
X187000000Y-53000000D03*
D31*
X181900000Y-56900000D03*
D32*
X182205324Y-57263871D02*
X181594676Y-56536129D01*
M02*
